<mxfile host="65bd71144e">
    <diagram name="to-be" id="-FQbQIRzEgXYEJ3rUFKh">
        <mxGraphModel dx="1943" dy="3249" grid="1" gridSize="10" guides="1" tooltips="1" connect="1" arrows="1" fold="1" page="1" pageScale="1" pageWidth="827" pageHeight="1169" math="0" shadow="0">
            <root>
                <mxCell id="0"/>
                <mxCell id="1" parent="0"/>
                <mxCell id="cyWZ6qS67xgMYoMhnP-D-62" value="&lt;div style=&quot;font-size: 1px&quot;&gt;&lt;font style=&quot;font-size: 22.58px; font-family: Arial; color: rgb(0, 0, 0); direction: ltr; letter-spacing: 0px; line-height: 120%; opacity: 1;&quot;&gt;DC2&lt;br&gt;&lt;/font&gt;&lt;/div&gt;" style="verticalAlign=bottom;align=center;overflow=width;vsdxID=5;fillColor=#e3ebff;gradientColor=none;shape=stencil(vVNBDsIgEHwNRwxCjHqu+g9iaUtEaBa09fdSwdpi9dBDb8vOwOwsGcQyW/FaIEqsA3MRjcxdhdgBUSp1JUA6XyF2RCwrDIgSzE3n4VzzjtlVV3PvXmjDPdLdoOQRTrvtavNqnAKXw9mDELkBIhDJaxrJZIy/YRLfbjFvpcVgHHfS6JGu4lAK7GVwoXg5gmwjRP3VjoMpqQcm9tPKs0z0Y6crWcBHqt0PN8tJspXFfmNKdpaBH8tYwML/VPjiE6dCKhXSOMTT+PlWiC47PgE=);strokeColor=none;spacingTop=-3;spacingBottom=-3;spacingLeft=-3;spacingRight=-3;points=[];labelBackgroundColor=none;rounded=0;html=1;whiteSpace=wrap;container=0;" parent="1" vertex="1">
                    <mxGeometry x="780" y="116" width="390.22" height="930" as="geometry"/>
                </mxCell>
                <mxCell id="cyWZ6qS67xgMYoMhnP-D-63" value="" style="group" parent="1" vertex="1" connectable="0">
                    <mxGeometry x="815.1100000000001" y="530" width="320" height="340" as="geometry"/>
                </mxCell>
                <mxCell id="cyWZ6qS67xgMYoMhnP-D-64" style="vsdxID=6;fillColor=none;gradientColor=none;shape=stencil(vVNdD4IgFP01POIQms1nq//BEpVF4q6U9u/DoFJxPdjm2/04cO65cBDL2oo3AlHSGtAX0cncVIgdEKWyrgRIYyPEjohlhQZRgr7VucsbPiCH6Krvww29O0eGE5Q8XJaSaPcqnByWw9k2wWNZRFMHhzc+SlwhQHhATDxBj3kvWwzacCN1PSFXHEqBLRcuFC8nrbYTognKfjol65GSNIn28SL5SjGf2efL2UBMwO1nWykl3M1mzxJ8ib/eZHkrG8j47RMbfA1WSKWcP8f9uSFtyZmZHZ8=);strokeColor=#5282ff;spacingTop=-3;spacingBottom=-3;spacingLeft=-3;spacingRight=-3;points=[];labelBackgroundColor=none;rounded=0;html=1;whiteSpace=wrap;container=0;" parent="cyWZ6qS67xgMYoMhnP-D-63" vertex="1">
                    <mxGeometry width="320" height="339.99999999999994" as="geometry"/>
                </mxCell>
                <mxCell id="cyWZ6qS67xgMYoMhnP-D-65" value="" style="shape=image;verticalLabelPosition=bottom;verticalAlign=top;imageAspect=0;aspect=fixed;image=data:image/svg+xml,PHN2ZyB4bWxucz0iaHR0cDovL3d3dy53My5vcmcvMjAwMC9zdmciIHdpZHRoPSIzMiIgaGVpZ2h0PSIzMiIgdmlld0JveD0iMCAwIDMyIDMyIiBmaWxsPSJub25lIj4mI3hhOzxwYXRoIGQ9Ik0wIDE2QzAgNy4xNjM0NCA3LjE2MzQ0IDAgMTYgMFYwQzI0LjgzNjYgMCAzMiA3LjE2MzQ0IDMyIDE2VjE2QzMyIDI0LjgzNjYgMjQuODM2NiAzMiAxNiAzMlYzMkM3LjE2MzQ0IDMyIDAgMjQuODM2NiAwIDE2VjE2WiIgZmlsbD0iIzUyODJGRiIvPiYjeGE7PHBhdGggZD0iTTI0IDE1VjEzSDIyVjExQzIyIDEwLjQgMjEuNiAxMCAyMSAxMEgxOVY4SDE3VjEwSDE1VjhIMTNWMTBIMTFDMTAuNCAxMCAxMCAxMC40IDEwIDExVjEzSDhWMTVIMTBWMTdIOFYxOUgxMFYyMUMxMCAyMS42IDEwLjQgMjIgMTEgMjJIMTNWMjRIMTVWMjJIMTdWMjRIMTlWMjJIMjFDMjEuNiAyMiAyMiAyMS42IDIyIDIxVjE5SDI0VjE3SDIyVjE1SDI0Wk0xOSAxOUgxM1YxM0gxOVYxOVoiIGZpbGw9IndoaXRlIi8+JiN4YTs8L3N2Zz4=;container=0;" parent="cyWZ6qS67xgMYoMhnP-D-63" vertex="1">
                    <mxGeometry x="24.885151515151506" y="14.999115997307626" width="25.09090909090909" height="25.09090909090909" as="geometry"/>
                </mxCell>
                <mxCell id="cyWZ6qS67xgMYoMhnP-D-66" value="&lt;div style=&quot;font-size: 1px&quot;&gt;&lt;font style=&quot;font-size:22.58px;font-family:Arial;color:#000000;direction:ltr;letter-spacing:0px;line-height:120%;opacity:1&quot;&gt;VM 1&lt;br&gt;&lt;/font&gt;&lt;/div&gt;" style="verticalAlign=middle;align=center;overflow=width;vsdxID=7;fillColor=none;gradientColor=none;shape=stencil(nZBLDoAgDERP0z3SIyjew0SURgSD+Lu9kMZoXLhwN9O+tukAlrNpJg1SzDH4QW/URgNYgZTkjA4UkwJUgGXng+6DX1zLfmoymdXo17xh5zmRJ6Q42BWCfc2oJfdAr+Yv+AP9Cb7OJ3H/2JG1HNGz/84klThPVCc=);strokeColor=none;points=[];labelBackgroundColor=none;rounded=0;html=1;whiteSpace=wrap;container=0;" parent="cyWZ6qS67xgMYoMhnP-D-63" vertex="1">
                    <mxGeometry x="49.980303030303006" y="-30.803669134694495" width="93.29454545454544" height="116.68985117044348" as="geometry"/>
                </mxCell>
                <mxCell id="cyWZ6qS67xgMYoMhnP-D-67" value="" style="group" parent="cyWZ6qS67xgMYoMhnP-D-63" vertex="1" connectable="0">
                    <mxGeometry x="180.10999999999999" y="90" width="110" height="40" as="geometry"/>
                </mxCell>
                <mxCell id="cyWZ6qS67xgMYoMhnP-D-68" value="HA Proxy&amp;nbsp;&amp;nbsp;" style="rounded=1;whiteSpace=wrap;html=1;align=right;strokeColor=#FF0000;" parent="cyWZ6qS67xgMYoMhnP-D-67" vertex="1">
                    <mxGeometry width="110" height="40" as="geometry"/>
                </mxCell>
                <mxCell id="cyWZ6qS67xgMYoMhnP-D-69" value="" style="shape=image;verticalLabelPosition=bottom;verticalAlign=top;imageAspect=0;aspect=fixed;image=data:image/svg+xml,PHN2ZyB4bWxucz0iaHR0cDovL3d3dy53My5vcmcvMjAwMC9zdmciIHdpZHRoPSIzMiIgaGVpZ2h0PSIzMiIgdmlld0JveD0iMCAwIDMyIDMyIiBmaWxsPSJub25lIj4mI3hhOzxwYXRoIGQ9Ik0wIDE2QzAgNy4xNjM0NCA3LjE2MzQ0IDAgMTYgMFYwQzI0LjgzNjYgMCAzMiA3LjE2MzQ0IDMyIDE2VjE2QzMyIDI0LjgzNjYgMjQuODM2NiAzMiAxNiAzMlYzMkM3LjE2MzQ0IDMyIDAgMjQuODM2NiAwIDE2VjE2WiIgZmlsbD0iIzUyODJGRiIvPiYjeGE7PHBhdGggZD0iTTE3IDE3SDE5LjNDMTkuNyAxNy42IDIwLjMgMTggMjEgMThDMjIuMSAxOCAyMyAxNy4xIDIzIDE2QzIzIDE0LjkgMjIuMSAxNCAyMSAxNEMyMC4zIDE0IDE5LjYgMTQuNCAxOS4zIDE1SDE3VjExSDE5LjNDMTkuNyAxMS42IDIwLjMgMTIgMjEgMTJDMjIuMSAxMiAyMyAxMS4xIDIzIDEwQzIzIDguOSAyMi4xIDggMjEgOEMyMC4zIDggMTkuNiA4LjQgMTkuMyA5SDE3QzE1LjkgOSAxNSA5LjkgMTUgMTFWMTUuM0wxMCAxMlYxNUg3VjE3SDEwVjIwTDE1IDE2LjdWMjFDMTUgMjIuMSAxNS45IDIzIDE3IDIzSDE5LjNDMTkuNyAyMy42IDIwLjMgMjQgMjEgMjRDMjIuMSAyNCAyMyAyMy4xIDIzIDIyQzIzIDIwLjkgMjIuMSAyMCAyMSAyMEMyMC4zIDIwIDE5LjYgMjAuNCAxOS4zIDIxSDE3VjE3WiIgZmlsbD0id2hpdGUiLz4mI3hhOzwvc3ZnPg==;" parent="cyWZ6qS67xgMYoMhnP-D-67" vertex="1">
                    <mxGeometry x="13" y="4" width="32" height="32" as="geometry"/>
                </mxCell>
                <mxCell id="cyWZ6qS67xgMYoMhnP-D-70" value="" style="group" parent="cyWZ6qS67xgMYoMhnP-D-63" vertex="1" connectable="0">
                    <mxGeometry x="170" y="213" width="130" height="105.5" as="geometry"/>
                </mxCell>
                <mxCell id="cyWZ6qS67xgMYoMhnP-D-71" value="&lt;div style=&quot;font-size: 1px&quot;&gt;&lt;font style=&quot;font-size:22.58px;font-family:Arial;color:#000000;direction:ltr;letter-spacing:0px;line-height:120%;opacity:1&quot;&gt;PosrgreSQL&lt;br&gt;&lt;/font&gt;&lt;/div&gt;&lt;div style=&quot;font-size: 1px&quot;&gt;&lt;font style=&quot;font-size:22.58px;font-family:Arial;color:#000000;direction:ltr;letter-spacing:0px;line-height:120%;opacity:1&quot;&gt;(master)&lt;/font&gt;&lt;/div&gt;" style="verticalAlign=bottom;align=center;overflow=width;vsdxID=6;fillColor=none;gradientColor=none;strokeColor=none;spacingTop=-3;spacingBottom=-3;spacingLeft=-3;spacingRight=-3;points=[];labelBackgroundColor=none;rounded=0;html=1;whiteSpace=wrap;container=0;" parent="cyWZ6qS67xgMYoMhnP-D-70" vertex="1">
                    <mxGeometry y="45" width="130" height="53.21" as="geometry"/>
                </mxCell>
                <mxCell id="cyWZ6qS67xgMYoMhnP-D-72" style="vsdxID=5;fillColor=none;gradientColor=none;shape=stencil(vVPLEoIgFP0aljgEVuPa6j+YRGUica6U9vdhUKk4LWzG3X0cOPdcOIilTclrgShpDOiLaGVmSsQOiFJZlQKksRFiR8TSXIMoQN+qzOU175F9dNX3/obOnSP9CUoeLktIFL8KJ4flcLZN8NhtRJiDwxsf7VwhQHjAhniCDvNONhi04UbqakSuOBQCWy6cK16MWk0rRB2U/XRKVgMlSRwl+1nyhWI+s0+Xs4KYgNvPtlBKuJvVniX4En+9yfxWVpDx2yc2+Bosl0o5fw77U0PakjMzOz4B);strokeColor=#ff5958;spacingTop=-3;spacingBottom=-3;spacingLeft=-3;spacingRight=-3;points=[];labelBackgroundColor=none;rounded=0;html=1;whiteSpace=wrap;container=0;" parent="cyWZ6qS67xgMYoMhnP-D-70" vertex="1">
                    <mxGeometry width="130" height="105.5" as="geometry"/>
                </mxCell>
                <mxCell id="cyWZ6qS67xgMYoMhnP-D-73" value="" style="shape=image;verticalLabelPosition=bottom;verticalAlign=top;imageAspect=0;aspect=fixed;image=data:image/svg+xml,PHN2ZyB4bWxucz0iaHR0cDovL3d3dy53My5vcmcvMjAwMC9zdmciIHdpZHRoPSIzMiIgaGVpZ2h0PSIzMiIgdmlld0JveD0iMCAwIDMyIDMyIiBmaWxsPSJub25lIj4mI3hhOzxwYXRoIGQ9Ik0wIDE2QzAgNy4xNjM0NCA3LjE2MzQ0IDAgMTYgMFYwQzI0LjgzNjYgMCAzMiA3LjE2MzQ0IDMyIDE2VjE2QzMyIDI0LjgzNjYgMjQuODM2NiAzMiAxNiAzMlYzMkM3LjE2MzQ0IDMyIDAgMjQuODM2NiAwIDE2VjE2WiIgZmlsbD0iIzUyODJGRiIvPiYjeGE7PHBhdGggZmlsbC1ydWxlPSJldmVub2RkIiBjbGlwLXJ1bGU9ImV2ZW5vZGQiIGQ9Ik0xMyA4SDE4QzIxLjMgOCAyNCAxMC43IDI0IDE0VjI0SDIwVjIwSDIyVjE5SDE4LjZDMTUuNSAxOSAxMyAxNi41IDEzIDEzLjRWOFpNMTkgMTdIMjFWMTVIMTlWMTdaTTEyIDkuMDk5OThWMTMuNEMxMiAxNi44IDE0LjYgMTkuNyAxOCAyMC4xVjIwLjZDMTggMjIgMTUuOCAyMy4xIDEzIDIzLjFDMTAuMiAyMy4xIDggMjIgOCAyMC42VjExLjZDOCAxMC4zIDkuNyA5LjI5OTk4IDEyIDkuMDk5OThaIiBmaWxsPSJ3aGl0ZSIvPiYjeGE7PC9zdmc+;container=0;" parent="cyWZ6qS67xgMYoMhnP-D-70" vertex="1">
                    <mxGeometry x="10" y="5.240000000000009" width="36.26923076923077" height="36.26923076923077" as="geometry"/>
                </mxCell>
                <mxCell id="cyWZ6qS67xgMYoMhnP-D-74" style="edgeStyle=orthogonalEdgeStyle;rounded=0;orthogonalLoop=1;jettySize=auto;html=1;exitX=0.5;exitY=1;exitDx=0;exitDy=0;" parent="cyWZ6qS67xgMYoMhnP-D-63" source="cyWZ6qS67xgMYoMhnP-D-68" target="cyWZ6qS67xgMYoMhnP-D-72" edge="1">
                    <mxGeometry relative="1" as="geometry"/>
                </mxCell>
                <mxCell id="cyWZ6qS67xgMYoMhnP-D-108" style="edgeStyle=orthogonalEdgeStyle;rounded=0;orthogonalLoop=1;jettySize=auto;html=1;fillColor=#f8cecc;strokeColor=#b85450;" parent="cyWZ6qS67xgMYoMhnP-D-63" source="cyWZ6qS67xgMYoMhnP-D-72" target="cyWZ6qS67xgMYoMhnP-D-68" edge="1">
                    <mxGeometry relative="1" as="geometry">
                        <Array as="points">
                            <mxPoint x="265" y="140"/>
                            <mxPoint x="265" y="140"/>
                        </Array>
                        <mxPoint x="-175.11000000000013" y="18" as="sourcePoint"/>
                        <mxPoint x="-255.11000000000013" y="-30" as="targetPoint"/>
                    </mxGeometry>
                </mxCell>
                <mxCell id="cyWZ6qS67xgMYoMhnP-D-109" value="&lt;span style=&quot;color: rgba(0, 0, 0, 0.85); font-family: &amp;quot;YS Text&amp;quot;, sans-serif; text-align: left; white-space: pre-wrap;&quot;&gt;health check&lt;/span&gt;" style="edgeLabel;html=1;align=center;verticalAlign=middle;resizable=0;points=[];fontSize=12;" parent="cyWZ6qS67xgMYoMhnP-D-108" vertex="1" connectable="0">
                    <mxGeometry x="0.3704" relative="1" as="geometry">
                        <mxPoint y="28" as="offset"/>
                    </mxGeometry>
                </mxCell>
                <mxCell id="8" value="&lt;div style=&quot;font-size: 1px&quot;&gt;&lt;font style=&quot;font-size: 22.58px; font-family: Arial; color: rgb(0, 0, 0); direction: ltr; letter-spacing: 0px; line-height: 120%; opacity: 1;&quot;&gt;DC1&lt;br&gt;&lt;/font&gt;&lt;/div&gt;" style="verticalAlign=bottom;align=center;overflow=width;vsdxID=5;fillColor=#e3ebff;gradientColor=none;shape=stencil(vVNBDsIgEHwNRwxCjHqu+g9iaUtEaBa09fdSwdpi9dBDb8vOwOwsGcQyW/FaIEqsA3MRjcxdhdgBUSp1JUA6XyF2RCwrDIgSzE3n4VzzjtlVV3PvXmjDPdLdoOQRTrvtavNqnAKXw9mDELkBIhDJaxrJZIy/YRLfbjFvpcVgHHfS6JGu4lAK7GVwoXg5gmwjRP3VjoMpqQcm9tPKs0z0Y6crWcBHqt0PN8tJspXFfmNKdpaBH8tYwML/VPjiE6dCKhXSOMTT+PlWiC47PgE=);strokeColor=none;spacingTop=-3;spacingBottom=-3;spacingLeft=-3;spacingRight=-3;points=[];labelBackgroundColor=none;rounded=0;html=1;whiteSpace=wrap;container=0;" parent="1" vertex="1">
                    <mxGeometry x="60" y="110" width="390.22" height="920" as="geometry"/>
                </mxCell>
                <mxCell id="17" value="" style="group" parent="1" vertex="1" connectable="0">
                    <mxGeometry x="95.11000000000001" y="530" width="1040" height="340" as="geometry"/>
                </mxCell>
                <mxCell id="cyWZ6qS67xgMYoMhnP-D-42" value="patroni cluster" style="rounded=1;whiteSpace=wrap;html=1;labelPosition=center;verticalLabelPosition=bottom;align=center;verticalAlign=top;dashed=1;fillColor=none;" parent="17" vertex="1">
                    <mxGeometry x="104.89" y="60" width="925.11" height="270" as="geometry"/>
                </mxCell>
                <mxCell id="18" style="vsdxID=6;fillColor=none;gradientColor=none;shape=stencil(vVNdD4IgFP01POIQms1nq//BEpVF4q6U9u/DoFJxPdjm2/04cO65cBDL2oo3AlHSGtAX0cncVIgdEKWyrgRIYyPEjohlhQZRgr7VucsbPiCH6Krvww29O0eGE5Q8XJaSaPcqnByWw9k2wWNZRFMHhzc+SlwhQHhATDxBj3kvWwzacCN1PSFXHEqBLRcuFC8nrbYTognKfjol65GSNIn28SL5SjGf2efL2UBMwO1nWykl3M1mzxJ8ib/eZHkrG8j47RMbfA1WSKWcP8f9uSFtyZmZHZ8=);strokeColor=#5282ff;spacingTop=-3;spacingBottom=-3;spacingLeft=-3;spacingRight=-3;points=[];labelBackgroundColor=none;rounded=0;html=1;whiteSpace=wrap;container=0;" parent="17" vertex="1">
                    <mxGeometry width="320" height="339.99999999999994" as="geometry"/>
                </mxCell>
                <mxCell id="19" value="" style="shape=image;verticalLabelPosition=bottom;verticalAlign=top;imageAspect=0;aspect=fixed;image=data:image/svg+xml,PHN2ZyB4bWxucz0iaHR0cDovL3d3dy53My5vcmcvMjAwMC9zdmciIHdpZHRoPSIzMiIgaGVpZ2h0PSIzMiIgdmlld0JveD0iMCAwIDMyIDMyIiBmaWxsPSJub25lIj4mI3hhOzxwYXRoIGQ9Ik0wIDE2QzAgNy4xNjM0NCA3LjE2MzQ0IDAgMTYgMFYwQzI0LjgzNjYgMCAzMiA3LjE2MzQ0IDMyIDE2VjE2QzMyIDI0LjgzNjYgMjQuODM2NiAzMiAxNiAzMlYzMkM3LjE2MzQ0IDMyIDAgMjQuODM2NiAwIDE2VjE2WiIgZmlsbD0iIzUyODJGRiIvPiYjeGE7PHBhdGggZD0iTTI0IDE1VjEzSDIyVjExQzIyIDEwLjQgMjEuNiAxMCAyMSAxMEgxOVY4SDE3VjEwSDE1VjhIMTNWMTBIMTFDMTAuNCAxMCAxMCAxMC40IDEwIDExVjEzSDhWMTVIMTBWMTdIOFYxOUgxMFYyMUMxMCAyMS42IDEwLjQgMjIgMTEgMjJIMTNWMjRIMTVWMjJIMTdWMjRIMTlWMjJIMjFDMjEuNiAyMiAyMiAyMS42IDIyIDIxVjE5SDI0VjE3SDIyVjE1SDI0Wk0xOSAxOUgxM1YxM0gxOVYxOVoiIGZpbGw9IndoaXRlIi8+JiN4YTs8L3N2Zz4=;container=0;" parent="17" vertex="1">
                    <mxGeometry x="24.885151515151506" y="14.999115997307626" width="25.09090909090909" height="25.09090909090909" as="geometry"/>
                </mxCell>
                <mxCell id="20" value="&lt;div style=&quot;font-size: 1px&quot;&gt;&lt;font style=&quot;font-size:22.58px;font-family:Arial;color:#000000;direction:ltr;letter-spacing:0px;line-height:120%;opacity:1&quot;&gt;VM 1&lt;br&gt;&lt;/font&gt;&lt;/div&gt;" style="verticalAlign=middle;align=center;overflow=width;vsdxID=7;fillColor=none;gradientColor=none;shape=stencil(nZBLDoAgDERP0z3SIyjew0SURgSD+Lu9kMZoXLhwN9O+tukAlrNpJg1SzDH4QW/URgNYgZTkjA4UkwJUgGXng+6DX1zLfmoymdXo17xh5zmRJ6Q42BWCfc2oJfdAr+Yv+AP9Cb7OJ3H/2JG1HNGz/84klThPVCc=);strokeColor=none;points=[];labelBackgroundColor=none;rounded=0;html=1;whiteSpace=wrap;container=0;" parent="17" vertex="1">
                    <mxGeometry x="49.980303030303006" y="-30.803669134694495" width="93.29454545454544" height="116.68985117044348" as="geometry"/>
                </mxCell>
                <mxCell id="cyWZ6qS67xgMYoMhnP-D-39" value="" style="group" parent="17" vertex="1" connectable="0">
                    <mxGeometry x="180.10999999999999" y="90" width="110" height="40" as="geometry"/>
                </mxCell>
                <mxCell id="cyWZ6qS67xgMYoMhnP-D-38" value="HA Proxy&amp;nbsp;&amp;nbsp;" style="rounded=1;whiteSpace=wrap;html=1;align=right;strokeColor=light-dark(#ff0000, #ededed);" parent="cyWZ6qS67xgMYoMhnP-D-39" vertex="1">
                    <mxGeometry width="110" height="40" as="geometry"/>
                </mxCell>
                <mxCell id="cyWZ6qS67xgMYoMhnP-D-33" value="" style="shape=image;verticalLabelPosition=bottom;verticalAlign=top;imageAspect=0;aspect=fixed;image=data:image/svg+xml,PHN2ZyB4bWxucz0iaHR0cDovL3d3dy53My5vcmcvMjAwMC9zdmciIHdpZHRoPSIzMiIgaGVpZ2h0PSIzMiIgdmlld0JveD0iMCAwIDMyIDMyIiBmaWxsPSJub25lIj4mI3hhOzxwYXRoIGQ9Ik0wIDE2QzAgNy4xNjM0NCA3LjE2MzQ0IDAgMTYgMFYwQzI0LjgzNjYgMCAzMiA3LjE2MzQ0IDMyIDE2VjE2QzMyIDI0LjgzNjYgMjQuODM2NiAzMiAxNiAzMlYzMkM3LjE2MzQ0IDMyIDAgMjQuODM2NiAwIDE2VjE2WiIgZmlsbD0iIzUyODJGRiIvPiYjeGE7PHBhdGggZD0iTTE3IDE3SDE5LjNDMTkuNyAxNy42IDIwLjMgMTggMjEgMThDMjIuMSAxOCAyMyAxNy4xIDIzIDE2QzIzIDE0LjkgMjIuMSAxNCAyMSAxNEMyMC4zIDE0IDE5LjYgMTQuNCAxOS4zIDE1SDE3VjExSDE5LjNDMTkuNyAxMS42IDIwLjMgMTIgMjEgMTJDMjIuMSAxMiAyMyAxMS4xIDIzIDEwQzIzIDguOSAyMi4xIDggMjEgOEMyMC4zIDggMTkuNiA4LjQgMTkuMyA5SDE3QzE1LjkgOSAxNSA5LjkgMTUgMTFWMTUuM0wxMCAxMlYxNUg3VjE3SDEwVjIwTDE1IDE2LjdWMjFDMTUgMjIuMSAxNS45IDIzIDE3IDIzSDE5LjNDMTkuNyAyMy42IDIwLjMgMjQgMjEgMjRDMjIuMSAyNCAyMyAyMy4xIDIzIDIyQzIzIDIwLjkgMjIuMSAyMCAyMSAyMEMyMC4zIDIwIDE5LjYgMjAuNCAxOS4zIDIxSDE3VjE3WiIgZmlsbD0id2hpdGUiLz4mI3hhOzwvc3ZnPg==;" parent="cyWZ6qS67xgMYoMhnP-D-39" vertex="1">
                    <mxGeometry x="13" y="4" width="32" height="32" as="geometry"/>
                </mxCell>
                <mxCell id="cyWZ6qS67xgMYoMhnP-D-40" value="" style="group" parent="17" vertex="1" connectable="0">
                    <mxGeometry x="170" y="213" width="130" height="105.5" as="geometry"/>
                </mxCell>
                <mxCell id="15" value="&lt;div style=&quot;font-size: 1px&quot;&gt;&lt;font style=&quot;font-size:22.58px;font-family:Arial;color:#000000;direction:ltr;letter-spacing:0px;line-height:120%;opacity:1&quot;&gt;PosrgreSQL&lt;br&gt;&lt;/font&gt;&lt;/div&gt;&lt;div style=&quot;font-size: 1px&quot;&gt;&lt;font style=&quot;font-size:22.58px;font-family:Arial;color:#000000;direction:ltr;letter-spacing:0px;line-height:120%;opacity:1&quot;&gt;(master)&lt;/font&gt;&lt;/div&gt;" style="verticalAlign=bottom;align=center;overflow=width;vsdxID=6;fillColor=none;gradientColor=none;strokeColor=none;spacingTop=-3;spacingBottom=-3;spacingLeft=-3;spacingRight=-3;points=[];labelBackgroundColor=none;rounded=0;html=1;whiteSpace=wrap;container=0;" parent="cyWZ6qS67xgMYoMhnP-D-40" vertex="1">
                    <mxGeometry y="45" width="130" height="53.21" as="geometry"/>
                </mxCell>
                <mxCell id="14" style="vsdxID=5;fillColor=none;gradientColor=none;shape=stencil(vVPLEoIgFP0aljgEVuPa6j+YRGUica6U9vdhUKk4LWzG3X0cOPdcOIilTclrgShpDOiLaGVmSsQOiFJZlQKksRFiR8TSXIMoQN+qzOU175F9dNX3/obOnSP9CUoeLktIFL8KJ4flcLZN8NhtRJiDwxsf7VwhQHjAhniCDvNONhi04UbqakSuOBQCWy6cK16MWk0rRB2U/XRKVgMlSRwl+1nyhWI+s0+Xs4KYgNvPtlBKuJvVniX4En+9yfxWVpDx2yc2+Bosl0o5fw77U0PakjMzOz4B);strokeColor=#ff5958;spacingTop=-3;spacingBottom=-3;spacingLeft=-3;spacingRight=-3;points=[];labelBackgroundColor=none;rounded=0;html=1;whiteSpace=wrap;container=0;" parent="cyWZ6qS67xgMYoMhnP-D-40" vertex="1">
                    <mxGeometry width="130" height="105.5" as="geometry"/>
                </mxCell>
                <mxCell id="16" value="" style="shape=image;verticalLabelPosition=bottom;verticalAlign=top;imageAspect=0;aspect=fixed;image=data:image/svg+xml,PHN2ZyB4bWxucz0iaHR0cDovL3d3dy53My5vcmcvMjAwMC9zdmciIHdpZHRoPSIzMiIgaGVpZ2h0PSIzMiIgdmlld0JveD0iMCAwIDMyIDMyIiBmaWxsPSJub25lIj4mI3hhOzxwYXRoIGQ9Ik0wIDE2QzAgNy4xNjM0NCA3LjE2MzQ0IDAgMTYgMFYwQzI0LjgzNjYgMCAzMiA3LjE2MzQ0IDMyIDE2VjE2QzMyIDI0LjgzNjYgMjQuODM2NiAzMiAxNiAzMlYzMkM3LjE2MzQ0IDMyIDAgMjQuODM2NiAwIDE2VjE2WiIgZmlsbD0iIzUyODJGRiIvPiYjeGE7PHBhdGggZmlsbC1ydWxlPSJldmVub2RkIiBjbGlwLXJ1bGU9ImV2ZW5vZGQiIGQ9Ik0xMyA4SDE4QzIxLjMgOCAyNCAxMC43IDI0IDE0VjI0SDIwVjIwSDIyVjE5SDE4LjZDMTUuNSAxOSAxMyAxNi41IDEzIDEzLjRWOFpNMTkgMTdIMjFWMTVIMTlWMTdaTTEyIDkuMDk5OThWMTMuNEMxMiAxNi44IDE0LjYgMTkuNyAxOCAyMC4xVjIwLjZDMTggMjIgMTUuOCAyMy4xIDEzIDIzLjFDMTAuMiAyMy4xIDggMjIgOCAyMC42VjExLjZDOCAxMC4zIDkuNyA5LjI5OTk4IDEyIDkuMDk5OThaIiBmaWxsPSJ3aGl0ZSIvPiYjeGE7PC9zdmc+;container=0;" parent="cyWZ6qS67xgMYoMhnP-D-40" vertex="1">
                    <mxGeometry x="10" y="5.240000000000009" width="36.26923076923077" height="36.26923076923077" as="geometry"/>
                </mxCell>
                <mxCell id="cyWZ6qS67xgMYoMhnP-D-41" style="edgeStyle=orthogonalEdgeStyle;rounded=0;orthogonalLoop=1;jettySize=auto;html=1;exitX=0.5;exitY=1;exitDx=0;exitDy=0;" parent="17" source="cyWZ6qS67xgMYoMhnP-D-38" target="14" edge="1">
                    <mxGeometry relative="1" as="geometry"/>
                </mxCell>
                <mxCell id="cyWZ6qS67xgMYoMhnP-D-110" style="edgeStyle=orthogonalEdgeStyle;rounded=0;orthogonalLoop=1;jettySize=auto;html=1;fillColor=#f8cecc;strokeColor=#b85450;" parent="17" source="14" target="cyWZ6qS67xgMYoMhnP-D-38" edge="1">
                    <mxGeometry relative="1" as="geometry">
                        <Array as="points">
                            <mxPoint x="265" y="150"/>
                            <mxPoint x="265" y="150"/>
                        </Array>
                        <mxPoint x="544.89" y="18" as="sourcePoint"/>
                        <mxPoint x="464.89" y="-30" as="targetPoint"/>
                    </mxGeometry>
                </mxCell>
                <mxCell id="cyWZ6qS67xgMYoMhnP-D-111" value="&lt;span style=&quot;color: rgba(0, 0, 0, 0.85); font-family: &amp;quot;YS Text&amp;quot;, sans-serif; text-align: left; white-space: pre-wrap;&quot;&gt;health check&lt;/span&gt;" style="edgeLabel;html=1;align=center;verticalAlign=middle;resizable=0;points=[];fontSize=12;" parent="cyWZ6qS67xgMYoMhnP-D-110" vertex="1" connectable="0">
                    <mxGeometry x="0.3704" relative="1" as="geometry">
                        <mxPoint y="24" as="offset"/>
                    </mxGeometry>
                </mxCell>
                <mxCell id="24" style="vsdxID=6;fillColor=none;gradientColor=none;shape=stencil(vVNdD4IgFP01POIQms1nq//BEpVF4q6U9u/DoFJxPdjm2/04cO65cBDL2oo3AlHSGtAX0cncVIgdEKWyrgRIYyPEjohlhQZRgr7VucsbPiCH6Krvww29O0eGE5Q8XJaSaPcqnByWw9k2wWNZRFMHhzc+SlwhQHhATDxBj3kvWwzacCN1PSFXHEqBLRcuFC8nrbYTognKfjol65GSNIn28SL5SjGf2efL2UBMwO1nWykl3M1mzxJ8ib/eZHkrG8j47RMbfA1WSKWcP8f9uSFtyZmZHZ8=);strokeColor=#5282ff;spacingTop=-3;spacingBottom=-3;spacingLeft=-3;spacingRight=-3;points=[];labelBackgroundColor=none;rounded=0;html=1;whiteSpace=wrap;container=0;" parent="1" vertex="1">
                    <mxGeometry x="90" y="120" width="320" height="373.71" as="geometry"/>
                </mxCell>
                <mxCell id="12" style="vsdxID=5;fillColor=none;gradientColor=none;shape=stencil(vVPLEoIgFP0aljgEVuPa6j+YRGUica6U9vdhUKk4LWzG3X0cOPdcOIilTclrgShpDOiLaGVmSsQOiFJZlQKksRFiR8TSXIMoQN+qzOU175F9dNX3/obOnSP9CUoeLktIFL8KJ4flcLZN8NhtRJiDwxsf7VwhQHjAhniCDvNONhi04UbqakSuOBQCWy6cK16MWk0rRB2U/XRKVgMlSRwl+1nyhWI+s0+Xs4KYgNvPtlBKuJvVniX4En+9yfxWVpDx2yc2+Bosl0o5fw77U0PakjMzOz4B);strokeColor=#ff5958;spacingTop=-3;spacingBottom=-3;spacingLeft=-3;spacingRight=-3;points=[];labelBackgroundColor=none;rounded=0;html=1;whiteSpace=wrap;container=0;" parent="1" vertex="1">
                    <mxGeometry x="95.11000000000001" y="200" width="300" height="240" as="geometry"/>
                </mxCell>
                <mxCell id="21" value="" style="group" parent="1" vertex="1" connectable="0">
                    <mxGeometry x="95.11000000000001" y="196.29" width="320" height="133.71" as="geometry"/>
                </mxCell>
                <mxCell id="25" value="API GW" style="rounded=1;whiteSpace=wrap;html=1;" parent="21" vertex="1">
                    <mxGeometry x="160" y="82" width="130" height="40.14" as="geometry"/>
                </mxCell>
                <mxCell id="cyWZ6qS67xgMYoMhnP-D-31" value="" style="shape=image;verticalLabelPosition=bottom;verticalAlign=top;imageAspect=0;aspect=fixed;image=data:image/svg+xml,PHN2ZyB4bWxucz0iaHR0cDovL3d3dy53My5vcmcvMjAwMC9zdmciIHdpZHRoPSIzMiIgaGVpZ2h0PSIzMiIgdmlld0JveD0iMCAwIDMyIDMyIiBmaWxsPSJub25lIj4mI3hhOzxwYXRoIGQ9Ik0wIDE2QzAgNy4xNjM0NCA3LjE2MzQ0IDAgMTYgMEMyNC44MzY2IDAgMzIgNy4xNjM0NCAzMiAxNkMzMiAyNC44MzY2IDI0LjgzNjYgMzIgMTYgMzJDNy4xNjM0NCAzMiAwIDI0LjgzNjYgMCAxNloiIGZpbGw9IiM1MjgyRkYiLz4mI3hhOzxwYXRoIGZpbGwtcnVsZT0iZXZlbm9kZCIgY2xpcC1ydWxlPSJldmVub2RkIiBkPSJNMTYgMjRWMjMuOTg3QzE1LjkwMTcgMjMuOTg3MyAxNS44MDQzIDIzLjk2ODEgMTUuNzEzNCAyMy45MzA3QzE1LjYyMjUgMjMuODkzMyAxNS41Mzk4IDIzLjgzODQgMTUuNDcwMSAyMy43NjlDMTUuNDAwNSAyMy42OTk2IDE1LjM0NTIgMjMuNjE3MiAxNS4zMDc0IDIzLjUyNjRDMTUuMjY5NiAyMy40MzU2IDE1LjI1MDEgMjMuMzM4MyAxNS4yNSAyMy4yNFYyMC43NkMxNS4yNSAyMC4zNDcgMTUuNTg1IDIwLjAxMyAxNiAyMC4wMTNDMTYuNDEzIDIwLjAxMyAxNi43NSAyMC4zNDcgMTYuNzUgMjAuNzZWMjIuNTQ3QzE4LjM1NTEgMjIuMzU5IDE5LjgzNTMgMjEuNTg4NiAyMC45MTAzIDIwLjM4MTlDMjEuOTg1MiAxOS4xNzUyIDIyLjU4IDE3LjYxNiAyMi41ODIgMTZDMjIuNTgyIDE0LjQ0IDIyLjAzMiAxMyAyMS4xMTggMTEuODY3QzIwLjkxNDEgMTEuOTU5MSAyMC42OTIzIDEyLjAwNDQgMjAuNDY4NiAxMS45OTk3QzIwLjI0NSAxMS45OTQ5IDIwLjAyNTMgMTEuOTQwMiAxOS44MjU1IDExLjgzOTVDMTkuNjI1NyAxMS43Mzg5IDE5LjQ1MSAxMS41OTQ4IDE5LjMxNDEgMTEuNDE3OUMxOS4xNzczIDExLjI0MSAxOS4wODE3IDExLjAzNTcgMTkuMDM0NCAxMC44MTdDMTguOTg3MSAxMC41OTg0IDE4Ljk4OTMgMTAuMzcyIDE5LjA0MDkgMTAuMTU0M0MxOS4wOTI0IDkuOTM2NjQgMTkuMTkyIDkuNzMzMjYgMTkuMzMyMyA5LjU1OTA1QzE5LjQ3MjcgOS4zODQ4NSAxOS42NTAyIDkuMjQ0MjMgMTkuODUxOCA5LjE0NzVDMjAuMDUzNSA5LjA1MDc3IDIwLjI3NDMgOS4wMDAzNyAyMC40OTggOUMyMC43MTI4IDguOTk5MTcgMjAuOTI1MyA5LjA0NDU4IDIxLjEyMSA5LjEzMzE1QzIxLjMxNjcgOS4yMjE3MiAyMS40OTExIDkuMzUxMzggMjEuNjMyMyA5LjUxMzMyQzIxLjc3MzQgOS42NzUyNSAyMS44NzgxIDkuODY1NjcgMjEuOTM5MSAxMC4wNzE2QzIyLjAwMDEgMTAuMjc3NiAyMi4wMTYxIDEwLjQ5NDMgMjEuOTg2IDEwLjcwN0MyMy4yODUyIDEyLjE2MzcgMjQuMDAxOSAxNC4wNDgxIDIzLjk5OSAxNkMyMy45OTkgMjAuNDEzIDIwLjQxNCAyNCAxNiAyNFpNOS44OCAyMS40MjdDOS44OCAyMS4zMzMgOS44ODYgMjEuMjUzIDkuOSAyMS4xNzNDOC42NzIyNCAxOS43MjkxIDcuOTk4NjkgMTcuODk1MyA4IDE2QzggMTEuNTg3IDExLjU4NSA4IDE1Ljk5OSA4VjguMDEzQzE2LjE5ODggOC4wMTU2MyAxNi4zODk2IDguMDk2ODYgMTYuNTMgOC4yMzkxQzE2LjY3MDMgOC4zODEzNSAxNi43NDkgOC41NzMxNiAxNi43NDkgOC43NzNWMTEuMjRDMTYuNzQ5IDExLjQzODkgMTYuNjcgMTEuNjI5NyAxNi41MjkzIDExLjc3MDNDMTYuMzg4NyAxMS45MTEgMTYuMTk3OSAxMS45OSAxNS45OTkgMTEuOTlDMTUuODAwMSAxMS45OSAxNS42MDkzIDExLjkxMSAxNS40Njg3IDExLjc3MDNDMTUuMzI4IDExLjYyOTcgMTUuMjQ5IDExLjQzODkgMTUuMjQ5IDExLjI0TDE1LjI0NyA5LjQ1M0MxMy42NDIxIDkuNjQxMDggMTIuMTYyMSAxMC40MTE1IDExLjA4NzUgMTEuNjE4M0MxMC4wMTI5IDEyLjgyNSA5LjQxODUxIDE0LjM4NDIgOS40MTcgMTZDOS40MTcgMTcuNTIgOS45MzMgMTguOTIgMTAuNzk5IDIwLjA0QzExLjAwMzkgMTkuOTUyNyAxMS4yMjU3IDE5LjkxMjIgMTEuNDQ4MiAxOS45MjEzQzExLjY3MDcgMTkuOTMwNCAxMS44ODg0IDE5Ljk4ODkgMTIuMDg1NSAyMC4wOTI3QzEyLjI4MjYgMjAuMTk2NCAxMi40NTQxIDIwLjM0MjcgMTIuNTg3NiAyMC41MjFDMTIuNzIxMSAyMC42OTkzIDEyLjgxMzIgMjAuOTA1MSAxMi44NTcyIDIxLjEyMzRDMTIuOTAxMyAyMS4zNDE3IDEyLjg5NjEgMjEuNTY3MSAxMi44NDIyIDIxLjc4MzJDMTIuNzg4MyAyMS45OTkzIDEyLjY4NjkgMjIuMjAwNiAxMi41NDU1IDIyLjM3MjdDMTIuNDA0IDIyLjU0NDcgMTIuMjI2IDIyLjY4MzEgMTIuMDI0NSAyMi43Nzc4QzExLjgyMjkgMjIuODcyNCAxMS42MDI3IDIyLjkyMSAxMS4zOCAyMi45MkMxMC45ODMxIDIyLjkyMDggMTAuNjAyMiAyMi43NjQgMTAuMzIwOSAyMi40ODRDMTAuMDM5NyAyMi4yMDQxIDkuODgxMDYgMjEuODIzOSA5Ljg4IDIxLjQyN1pNMTMuNSAxNkMxMy40OTQyIDE1LjY2NzYgMTMuNTU0OCAxNS4zMzczIDEzLjY3ODIgMTUuMDI4NkMxMy44MDE1IDE0LjcxOTggMTMuOTg1MyAxNC40Mzg4IDE0LjIxODYgMTQuMjAyQzE0LjQ1MTkgMTMuOTY1MSAxNC43MzAxIDEzLjc3NzEgMTUuMDM3IDEzLjY0OTFDMTUuMzQzOCAxMy41MjExIDE1LjY3MzEgMTMuNDU1NiAxNi4wMDU2IDEzLjQ1NjRDMTYuMzM4MSAxMy40NTcyIDE2LjY2NzEgMTMuNTI0MyAxNi45NzMzIDEzLjY1MzhDMTcuMjc5NSAxMy43ODMzIDE3LjU1NjkgMTMuOTcyNSAxNy43ODkgMTQuMjEwNUMxOC4wMjEyIDE0LjQ0ODUgMTguMjAzNiAxNC43MzA0IDE4LjMyNTUgMTUuMDM5N0MxOC40NDc0IDE1LjM0OTEgMTguNTA2NCAxNS42Nzk2IDE4LjQ5OSAxNi4wMTJDMTguNDg0NCAxNi42NjYzIDE4LjIxMzkgMTcuMjg4OCAxNy43NDU1IDE3Ljc0NThDMTcuMjc3IDE4LjIwMjggMTYuNjQ4MSAxOC40NTc5IDE1Ljk5MzYgMTguNDU2NEMxNS4zMzkyIDE4LjQ1NDggMTQuNzExNCAxOC4xOTY3IDE0LjI0NTIgMTcuNzM3NEMxMy43NzkgMTcuMjc4MSAxMy41MTE0IDE2LjY1NDMgMTMuNSAxNloiIGZpbGw9IndoaXRlIi8+JiN4YTs8L3N2Zz4=;" parent="21" vertex="1">
                    <mxGeometry x="165" y="86.07" width="32" height="32" as="geometry"/>
                </mxCell>
                <mxCell id="Zcm5tQwCMB2YyKj0-IPv-42" style="edgeStyle=orthogonalEdgeStyle;rounded=0;orthogonalLoop=1;jettySize=auto;html=1;" parent="1" source="Zcm5tQwCMB2YyKj0-IPv-39" target="25" edge="1">
                    <mxGeometry relative="1" as="geometry">
                        <Array as="points">
                            <mxPoint x="624" y="290"/>
                        </Array>
                        <mxPoint x="-115" y="380" as="targetPoint"/>
                    </mxGeometry>
                </mxCell>
                <mxCell id="cyWZ6qS67xgMYoMhnP-D-43" value="HTTP запрос" style="edgeLabel;html=1;align=center;verticalAlign=middle;resizable=0;points=[];" parent="Zcm5tQwCMB2YyKj0-IPv-42" vertex="1" connectable="0">
                    <mxGeometry x="-0.3362" relative="1" as="geometry">
                        <mxPoint x="-94" y="16" as="offset"/>
                    </mxGeometry>
                </mxCell>
                <mxCell id="6" style="edgeStyle=orthogonalEdgeStyle;html=1;" parent="1" source="3" target="4" edge="1">
                    <mxGeometry relative="1" as="geometry">
                        <Array as="points">
                            <mxPoint x="430" y="-175"/>
                            <mxPoint x="430" y="225"/>
                        </Array>
                    </mxGeometry>
                </mxCell>
                <mxCell id="cyWZ6qS67xgMYoMhnP-D-35" style="edgeStyle=orthogonalEdgeStyle;rounded=0;orthogonalLoop=1;jettySize=auto;html=1;" parent="1" source="Zcm5tQwCMB2YyKj0-IPv-39" target="3" edge="1">
                    <mxGeometry relative="1" as="geometry">
                        <mxPoint x="280" y="-164.79999999999995" as="targetPoint"/>
                    </mxGeometry>
                </mxCell>
                <mxCell id="cyWZ6qS67xgMYoMhnP-D-44" value="Запрос A записи" style="edgeLabel;html=1;align=center;verticalAlign=middle;resizable=0;points=[];" parent="cyWZ6qS67xgMYoMhnP-D-35" vertex="1" connectable="0">
                    <mxGeometry x="-0.2513" y="2" relative="1" as="geometry">
                        <mxPoint x="2" y="-27" as="offset"/>
                    </mxGeometry>
                </mxCell>
                <mxCell id="3" value="Public DNS" style="rounded=1;whiteSpace=wrap;html=1;" parent="1" vertex="1">
                    <mxGeometry x="544" y="-190" width="160" height="30" as="geometry"/>
                </mxCell>
                <mxCell id="4" value="GSLB1" style="rounded=1;whiteSpace=wrap;html=1;" parent="1" vertex="1">
                    <mxGeometry x="305.11" y="210" width="80" height="30" as="geometry"/>
                </mxCell>
                <mxCell id="cyWZ6qS67xgMYoMhnP-D-75" style="vsdxID=6;fillColor=none;gradientColor=none;shape=stencil(vVNdD4IgFP01POIQms1nq//BEpVF4q6U9u/DoFJxPdjm2/04cO65cBDL2oo3AlHSGtAX0cncVIgdEKWyrgRIYyPEjohlhQZRgr7VucsbPiCH6Krvww29O0eGE5Q8XJaSaPcqnByWw9k2wWNZRFMHhzc+SlwhQHhATDxBj3kvWwzacCN1PSFXHEqBLRcuFC8nrbYTognKfjol65GSNIn28SL5SjGf2efL2UBMwO1nWykl3M1mzxJ8ib/eZHkrG8j47RMbfA1WSKWcP8f9uSFtyZmZHZ8=);strokeColor=#5282ff;spacingTop=-3;spacingBottom=-3;spacingLeft=-3;spacingRight=-3;points=[];labelBackgroundColor=none;rounded=0;html=1;whiteSpace=wrap;container=0;" parent="1" vertex="1">
                    <mxGeometry x="810" y="120" width="320" height="373.71" as="geometry"/>
                </mxCell>
                <mxCell id="cyWZ6qS67xgMYoMhnP-D-76" style="vsdxID=5;fillColor=none;gradientColor=none;shape=stencil(vVPLEoIgFP0aljgEVuPa6j+YRGUica6U9vdhUKk4LWzG3X0cOPdcOIilTclrgShpDOiLaGVmSsQOiFJZlQKksRFiR8TSXIMoQN+qzOU175F9dNX3/obOnSP9CUoeLktIFL8KJ4flcLZN8NhtRJiDwxsf7VwhQHjAhniCDvNONhi04UbqakSuOBQCWy6cK16MWk0rRB2U/XRKVgMlSRwl+1nyhWI+s0+Xs4KYgNvPtlBKuJvVniX4En+9yfxWVpDx2yc2+Bosl0o5fw77U0PakjMzOz4B);strokeColor=#ff5958;spacingTop=-3;spacingBottom=-3;spacingLeft=-3;spacingRight=-3;points=[];labelBackgroundColor=none;rounded=0;html=1;whiteSpace=wrap;container=0;" parent="1" vertex="1">
                    <mxGeometry x="815.1100000000001" y="200" width="300" height="240" as="geometry"/>
                </mxCell>
                <mxCell id="cyWZ6qS67xgMYoMhnP-D-77" value="" style="group" parent="1" vertex="1" connectable="0">
                    <mxGeometry x="815.1100000000001" y="196.29" width="320" height="133.71" as="geometry"/>
                </mxCell>
                <mxCell id="cyWZ6qS67xgMYoMhnP-D-78" value="API GW" style="rounded=1;whiteSpace=wrap;html=1;" parent="cyWZ6qS67xgMYoMhnP-D-77" vertex="1">
                    <mxGeometry x="160" y="82" width="130" height="40.14" as="geometry"/>
                </mxCell>
                <mxCell id="cyWZ6qS67xgMYoMhnP-D-79" value="" style="shape=image;verticalLabelPosition=bottom;verticalAlign=top;imageAspect=0;aspect=fixed;image=data:image/svg+xml,PHN2ZyB4bWxucz0iaHR0cDovL3d3dy53My5vcmcvMjAwMC9zdmciIHdpZHRoPSIzMiIgaGVpZ2h0PSIzMiIgdmlld0JveD0iMCAwIDMyIDMyIiBmaWxsPSJub25lIj4mI3hhOzxwYXRoIGQ9Ik0wIDE2QzAgNy4xNjM0NCA3LjE2MzQ0IDAgMTYgMEMyNC44MzY2IDAgMzIgNy4xNjM0NCAzMiAxNkMzMiAyNC44MzY2IDI0LjgzNjYgMzIgMTYgMzJDNy4xNjM0NCAzMiAwIDI0LjgzNjYgMCAxNloiIGZpbGw9IiM1MjgyRkYiLz4mI3hhOzxwYXRoIGZpbGwtcnVsZT0iZXZlbm9kZCIgY2xpcC1ydWxlPSJldmVub2RkIiBkPSJNMTYgMjRWMjMuOTg3QzE1LjkwMTcgMjMuOTg3MyAxNS44MDQzIDIzLjk2ODEgMTUuNzEzNCAyMy45MzA3QzE1LjYyMjUgMjMuODkzMyAxNS41Mzk4IDIzLjgzODQgMTUuNDcwMSAyMy43NjlDMTUuNDAwNSAyMy42OTk2IDE1LjM0NTIgMjMuNjE3MiAxNS4zMDc0IDIzLjUyNjRDMTUuMjY5NiAyMy40MzU2IDE1LjI1MDEgMjMuMzM4MyAxNS4yNSAyMy4yNFYyMC43NkMxNS4yNSAyMC4zNDcgMTUuNTg1IDIwLjAxMyAxNiAyMC4wMTNDMTYuNDEzIDIwLjAxMyAxNi43NSAyMC4zNDcgMTYuNzUgMjAuNzZWMjIuNTQ3QzE4LjM1NTEgMjIuMzU5IDE5LjgzNTMgMjEuNTg4NiAyMC45MTAzIDIwLjM4MTlDMjEuOTg1MiAxOS4xNzUyIDIyLjU4IDE3LjYxNiAyMi41ODIgMTZDMjIuNTgyIDE0LjQ0IDIyLjAzMiAxMyAyMS4xMTggMTEuODY3QzIwLjkxNDEgMTEuOTU5MSAyMC42OTIzIDEyLjAwNDQgMjAuNDY4NiAxMS45OTk3QzIwLjI0NSAxMS45OTQ5IDIwLjAyNTMgMTEuOTQwMiAxOS44MjU1IDExLjgzOTVDMTkuNjI1NyAxMS43Mzg5IDE5LjQ1MSAxMS41OTQ4IDE5LjMxNDEgMTEuNDE3OUMxOS4xNzczIDExLjI0MSAxOS4wODE3IDExLjAzNTcgMTkuMDM0NCAxMC44MTdDMTguOTg3MSAxMC41OTg0IDE4Ljk4OTMgMTAuMzcyIDE5LjA0MDkgMTAuMTU0M0MxOS4wOTI0IDkuOTM2NjQgMTkuMTkyIDkuNzMzMjYgMTkuMzMyMyA5LjU1OTA1QzE5LjQ3MjcgOS4zODQ4NSAxOS42NTAyIDkuMjQ0MjMgMTkuODUxOCA5LjE0NzVDMjAuMDUzNSA5LjA1MDc3IDIwLjI3NDMgOS4wMDAzNyAyMC40OTggOUMyMC43MTI4IDguOTk5MTcgMjAuOTI1MyA5LjA0NDU4IDIxLjEyMSA5LjEzMzE1QzIxLjMxNjcgOS4yMjE3MiAyMS40OTExIDkuMzUxMzggMjEuNjMyMyA5LjUxMzMyQzIxLjc3MzQgOS42NzUyNSAyMS44NzgxIDkuODY1NjcgMjEuOTM5MSAxMC4wNzE2QzIyLjAwMDEgMTAuMjc3NiAyMi4wMTYxIDEwLjQ5NDMgMjEuOTg2IDEwLjcwN0MyMy4yODUyIDEyLjE2MzcgMjQuMDAxOSAxNC4wNDgxIDIzLjk5OSAxNkMyMy45OTkgMjAuNDEzIDIwLjQxNCAyNCAxNiAyNFpNOS44OCAyMS40MjdDOS44OCAyMS4zMzMgOS44ODYgMjEuMjUzIDkuOSAyMS4xNzNDOC42NzIyNCAxOS43MjkxIDcuOTk4NjkgMTcuODk1MyA4IDE2QzggMTEuNTg3IDExLjU4NSA4IDE1Ljk5OSA4VjguMDEzQzE2LjE5ODggOC4wMTU2MyAxNi4zODk2IDguMDk2ODYgMTYuNTMgOC4yMzkxQzE2LjY3MDMgOC4zODEzNSAxNi43NDkgOC41NzMxNiAxNi43NDkgOC43NzNWMTEuMjRDMTYuNzQ5IDExLjQzODkgMTYuNjcgMTEuNjI5NyAxNi41MjkzIDExLjc3MDNDMTYuMzg4NyAxMS45MTEgMTYuMTk3OSAxMS45OSAxNS45OTkgMTEuOTlDMTUuODAwMSAxMS45OSAxNS42MDkzIDExLjkxMSAxNS40Njg3IDExLjc3MDNDMTUuMzI4IDExLjYyOTcgMTUuMjQ5IDExLjQzODkgMTUuMjQ5IDExLjI0TDE1LjI0NyA5LjQ1M0MxMy42NDIxIDkuNjQxMDggMTIuMTYyMSAxMC40MTE1IDExLjA4NzUgMTEuNjE4M0MxMC4wMTI5IDEyLjgyNSA5LjQxODUxIDE0LjM4NDIgOS40MTcgMTZDOS40MTcgMTcuNTIgOS45MzMgMTguOTIgMTAuNzk5IDIwLjA0QzExLjAwMzkgMTkuOTUyNyAxMS4yMjU3IDE5LjkxMjIgMTEuNDQ4MiAxOS45MjEzQzExLjY3MDcgMTkuOTMwNCAxMS44ODg0IDE5Ljk4ODkgMTIuMDg1NSAyMC4wOTI3QzEyLjI4MjYgMjAuMTk2NCAxMi40NTQxIDIwLjM0MjcgMTIuNTg3NiAyMC41MjFDMTIuNzIxMSAyMC42OTkzIDEyLjgxMzIgMjAuOTA1MSAxMi44NTcyIDIxLjEyMzRDMTIuOTAxMyAyMS4zNDE3IDEyLjg5NjEgMjEuNTY3MSAxMi44NDIyIDIxLjc4MzJDMTIuNzg4MyAyMS45OTkzIDEyLjY4NjkgMjIuMjAwNiAxMi41NDU1IDIyLjM3MjdDMTIuNDA0IDIyLjU0NDcgMTIuMjI2IDIyLjY4MzEgMTIuMDI0NSAyMi43Nzc4QzExLjgyMjkgMjIuODcyNCAxMS42MDI3IDIyLjkyMSAxMS4zOCAyMi45MkMxMC45ODMxIDIyLjkyMDggMTAuNjAyMiAyMi43NjQgMTAuMzIwOSAyMi40ODRDMTAuMDM5NyAyMi4yMDQxIDkuODgxMDYgMjEuODIzOSA5Ljg4IDIxLjQyN1pNMTMuNSAxNkMxMy40OTQyIDE1LjY2NzYgMTMuNTU0OCAxNS4zMzczIDEzLjY3ODIgMTUuMDI4NkMxMy44MDE1IDE0LjcxOTggMTMuOTg1MyAxNC40Mzg4IDE0LjIxODYgMTQuMjAyQzE0LjQ1MTkgMTMuOTY1MSAxNC43MzAxIDEzLjc3NzEgMTUuMDM3IDEzLjY0OTFDMTUuMzQzOCAxMy41MjExIDE1LjY3MzEgMTMuNDU1NiAxNi4wMDU2IDEzLjQ1NjRDMTYuMzM4MSAxMy40NTcyIDE2LjY2NzEgMTMuNTI0MyAxNi45NzMzIDEzLjY1MzhDMTcuMjc5NSAxMy43ODMzIDE3LjU1NjkgMTMuOTcyNSAxNy43ODkgMTQuMjEwNUMxOC4wMjEyIDE0LjQ0ODUgMTguMjAzNiAxNC43MzA0IDE4LjMyNTUgMTUuMDM5N0MxOC40NDc0IDE1LjM0OTEgMTguNTA2NCAxNS42Nzk2IDE4LjQ5OSAxNi4wMTJDMTguNDg0NCAxNi42NjYzIDE4LjIxMzkgMTcuMjg4OCAxNy43NDU1IDE3Ljc0NThDMTcuMjc3IDE4LjIwMjggMTYuNjQ4MSAxOC40NTc5IDE1Ljk5MzYgMTguNDU2NEMxNS4zMzkyIDE4LjQ1NDggMTQuNzExNCAxOC4xOTY3IDE0LjI0NTIgMTcuNzM3NEMxMy43NzkgMTcuMjc4MSAxMy41MTE0IDE2LjY1NDMgMTMuNSAxNloiIGZpbGw9IndoaXRlIi8+JiN4YTs8L3N2Zz4=;" parent="cyWZ6qS67xgMYoMhnP-D-77" vertex="1">
                    <mxGeometry x="165" y="86.07" width="32" height="32" as="geometry"/>
                </mxCell>
                <mxCell id="9" style="edgeStyle=orthogonalEdgeStyle;rounded=0;orthogonalLoop=1;jettySize=auto;html=1;exitX=0.5;exitY=1;exitDx=0;exitDy=0;entryX=0.5;entryY=0;entryDx=0;entryDy=0;" parent="1" source="28" target="cyWZ6qS67xgMYoMhnP-D-38" edge="1">
                    <mxGeometry relative="1" as="geometry">
                        <mxPoint x="570" y="450" as="sourcePoint"/>
                        <mxPoint x="550" y="590" as="targetPoint"/>
                        <Array as="points">
                            <mxPoint x="330" y="510"/>
                            <mxPoint x="330" y="570"/>
                        </Array>
                    </mxGeometry>
                </mxCell>
                <mxCell id="10" value="TCP" style="edgeLabel;html=1;align=center;verticalAlign=middle;resizable=0;points=[];container=0;" parent="9" vertex="1" connectable="0">
                    <mxGeometry x="-0.0566" y="2" relative="1" as="geometry">
                        <mxPoint x="-2" y="12" as="offset"/>
                    </mxGeometry>
                </mxCell>
                <mxCell id="13" value="&lt;div style=&quot;font-size: 1px&quot;&gt;&lt;font style=&quot;font-size:22.58px;font-family:Arial;color:#000000;direction:ltr;letter-spacing:0px;line-height:120%;opacity:1&quot;&gt;InsureTech&lt;/font&gt;&lt;/div&gt;&lt;div style=&quot;font-size: 1px&quot;&gt;&lt;font style=&quot;font-size:22.58px;font-family:Arial;color:#000000;direction:ltr;letter-spacing:0px;line-height:120%;opacity:1&quot;&gt;namespace&lt;/font&gt;&lt;/div&gt;" style="verticalAlign=bottom;align=center;overflow=width;vsdxID=6;fillColor=none;gradientColor=none;strokeColor=none;spacingTop=-3;spacingBottom=-3;spacingLeft=-3;spacingRight=-3;points=[];labelBackgroundColor=none;rounded=0;html=1;whiteSpace=wrap;container=0;" parent="1" vertex="1">
                    <mxGeometry x="100" y="378" width="130" height="54" as="geometry"/>
                </mxCell>
                <mxCell id="cyWZ6qS67xgMYoMhnP-D-80" value="GSLB2" style="rounded=1;whiteSpace=wrap;html=1;" parent="1" vertex="1">
                    <mxGeometry x="840" y="220" width="80" height="30" as="geometry"/>
                </mxCell>
                <mxCell id="cyWZ6qS67xgMYoMhnP-D-81" style="edgeStyle=orthogonalEdgeStyle;rounded=0;orthogonalLoop=1;jettySize=auto;html=1;exitX=0.5;exitY=1;exitDx=0;exitDy=0;entryX=0.5;entryY=0;entryDx=0;entryDy=0;" parent="1" source="cyWZ6qS67xgMYoMhnP-D-86" target="cyWZ6qS67xgMYoMhnP-D-68" edge="1">
                    <mxGeometry relative="1" as="geometry">
                        <mxPoint x="1290" y="450" as="sourcePoint"/>
                        <mxPoint x="1270" y="590" as="targetPoint"/>
                        <Array as="points">
                            <mxPoint x="1050" y="510"/>
                            <mxPoint x="1050" y="570"/>
                        </Array>
                    </mxGeometry>
                </mxCell>
                <mxCell id="cyWZ6qS67xgMYoMhnP-D-82" value="TCP" style="edgeLabel;html=1;align=center;verticalAlign=middle;resizable=0;points=[];container=0;" parent="cyWZ6qS67xgMYoMhnP-D-81" vertex="1" connectable="0">
                    <mxGeometry x="-0.0566" y="2" relative="1" as="geometry">
                        <mxPoint x="-2" y="11" as="offset"/>
                    </mxGeometry>
                </mxCell>
                <mxCell id="43" style="edgeStyle=none;html=1;exitX=0.75;exitY=0;exitDx=0;exitDy=0;entryX=0.75;entryY=1;entryDx=0;entryDy=0;fillColor=#f8cecc;strokeColor=#b85450;" edge="1" parent="1" source="26" target="25">
                    <mxGeometry relative="1" as="geometry"/>
                </mxCell>
                <mxCell id="26" value="APP" style="rounded=1;whiteSpace=wrap;html=1;" parent="1" vertex="1">
                    <mxGeometry x="270.22" y="370" width="80" height="30" as="geometry"/>
                </mxCell>
                <mxCell id="cyWZ6qS67xgMYoMhnP-D-83" value="&lt;div style=&quot;font-size: 1px&quot;&gt;&lt;font style=&quot;font-size:22.58px;font-family:Arial;color:#000000;direction:ltr;letter-spacing:0px;line-height:120%;opacity:1&quot;&gt;InsureTech&lt;/font&gt;&lt;/div&gt;&lt;div style=&quot;font-size: 1px&quot;&gt;&lt;font style=&quot;font-size:22.58px;font-family:Arial;color:#000000;direction:ltr;letter-spacing:0px;line-height:120%;opacity:1&quot;&gt;namespace&lt;/font&gt;&lt;/div&gt;" style="verticalAlign=bottom;align=center;overflow=width;vsdxID=6;fillColor=none;gradientColor=none;strokeColor=none;spacingTop=-3;spacingBottom=-3;spacingLeft=-3;spacingRight=-3;points=[];labelBackgroundColor=none;rounded=0;html=1;whiteSpace=wrap;container=0;" parent="1" vertex="1">
                    <mxGeometry x="820" y="378" width="130" height="54" as="geometry"/>
                </mxCell>
                <mxCell id="40" style="edgeStyle=none;html=1;exitX=0.75;exitY=0;exitDx=0;exitDy=0;fillColor=#f8cecc;strokeColor=#b85450;entryX=0.75;entryY=1;entryDx=0;entryDy=0;" edge="1" parent="1" source="cyWZ6qS67xgMYoMhnP-D-84" target="cyWZ6qS67xgMYoMhnP-D-78">
                    <mxGeometry relative="1" as="geometry">
                        <mxPoint x="1070" y="320" as="targetPoint"/>
                    </mxGeometry>
                </mxCell>
                <mxCell id="cyWZ6qS67xgMYoMhnP-D-84" value="APP" style="rounded=1;whiteSpace=wrap;html=1;" parent="1" vertex="1">
                    <mxGeometry x="990.22" y="370" width="80" height="30" as="geometry"/>
                </mxCell>
                <mxCell id="39" style="edgeStyle=none;html=1;exitX=0.75;exitY=0;exitDx=0;exitDy=0;fillColor=#f8cecc;strokeColor=#b85450;entryX=0.75;entryY=1;entryDx=0;entryDy=0;" edge="1" parent="1" source="cyWZ6qS67xgMYoMhnP-D-85" target="cyWZ6qS67xgMYoMhnP-D-78">
                    <mxGeometry relative="1" as="geometry">
                        <mxPoint x="1070" y="320" as="targetPoint"/>
                    </mxGeometry>
                </mxCell>
                <mxCell id="cyWZ6qS67xgMYoMhnP-D-85" value="APP" style="rounded=1;whiteSpace=wrap;html=1;" parent="1" vertex="1">
                    <mxGeometry x="1000.22" y="380" width="80" height="30" as="geometry"/>
                </mxCell>
                <mxCell id="cyWZ6qS67xgMYoMhnP-D-87" style="edgeStyle=none;html=1;exitX=0.5;exitY=1;exitDx=0;exitDy=0;entryX=0.5;entryY=0;entryDx=0;entryDy=0;" parent="1" source="cyWZ6qS67xgMYoMhnP-D-78" target="cyWZ6qS67xgMYoMhnP-D-84" edge="1">
                    <mxGeometry relative="1" as="geometry"/>
                </mxCell>
                <mxCell id="cyWZ6qS67xgMYoMhnP-D-88" style="edgeStyle=none;html=1;exitX=0.5;exitY=1;exitDx=0;exitDy=0;entryX=0.5;entryY=0;entryDx=0;entryDy=0;" parent="1" source="cyWZ6qS67xgMYoMhnP-D-78" target="cyWZ6qS67xgMYoMhnP-D-85" edge="1">
                    <mxGeometry relative="1" as="geometry"/>
                </mxCell>
                <mxCell id="cyWZ6qS67xgMYoMhnP-D-89" style="edgeStyle=none;html=1;exitX=0.5;exitY=1;exitDx=0;exitDy=0;entryX=0.5;entryY=0;entryDx=0;entryDy=0;" parent="1" source="cyWZ6qS67xgMYoMhnP-D-78" target="cyWZ6qS67xgMYoMhnP-D-86" edge="1">
                    <mxGeometry relative="1" as="geometry"/>
                </mxCell>
                <mxCell id="cyWZ6qS67xgMYoMhnP-D-90" style="edgeStyle=orthogonalEdgeStyle;rounded=0;orthogonalLoop=1;jettySize=auto;html=1;fillColor=#f8cecc;strokeColor=#b85450;" parent="1" source="cyWZ6qS67xgMYoMhnP-D-78" target="cyWZ6qS67xgMYoMhnP-D-80" edge="1">
                    <mxGeometry relative="1" as="geometry">
                        <Array as="points">
                            <mxPoint x="1000" y="230"/>
                        </Array>
                    </mxGeometry>
                </mxCell>
                <mxCell id="cyWZ6qS67xgMYoMhnP-D-91" value="&lt;span style=&quot;color: rgba(0, 0, 0, 0.85); font-family: &amp;quot;YS Text&amp;quot;, sans-serif; text-align: left; white-space: pre-wrap;&quot;&gt;health check&lt;/span&gt;" style="edgeLabel;html=1;align=center;verticalAlign=middle;resizable=0;points=[];fontSize=12;" parent="cyWZ6qS67xgMYoMhnP-D-90" vertex="1" connectable="0">
                    <mxGeometry x="0.3704" relative="1" as="geometry">
                        <mxPoint x="10" y="5" as="offset"/>
                    </mxGeometry>
                </mxCell>
                <mxCell id="42" style="edgeStyle=none;html=1;exitX=0.75;exitY=0;exitDx=0;exitDy=0;fillColor=#f8cecc;strokeColor=#b85450;entryX=0.75;entryY=1;entryDx=0;entryDy=0;" edge="1" parent="1" source="27" target="25">
                    <mxGeometry relative="1" as="geometry">
                        <mxPoint x="350" y="320" as="targetPoint"/>
                    </mxGeometry>
                </mxCell>
                <mxCell id="27" value="APP" style="rounded=1;whiteSpace=wrap;html=1;" parent="1" vertex="1">
                    <mxGeometry x="280.22" y="380" width="80" height="30" as="geometry"/>
                </mxCell>
                <mxCell id="cyWZ6qS67xgMYoMhnP-D-92" value="&lt;div style=&quot;font-size: 1px&quot;&gt;&lt;font style=&quot;font-size: 22.58px; font-family: Arial; color: rgb(0, 0, 0); direction: ltr; letter-spacing: 0px; line-height: 120%; opacity: 1;&quot;&gt;Kubernetes -&amp;nbsp;&lt;/font&gt;&lt;span style=&quot;font-family: Arial; font-size: 22.58px; letter-spacing: 0px; background-color: transparent;&quot;&gt;cluster 2&lt;/span&gt;&lt;/div&gt;" style="verticalAlign=middle;align=center;overflow=width;vsdxID=7;fillColor=none;gradientColor=none;shape=stencil(nZBLDoAgDERP0z3SIyjew0SURgSD+Lu9kMZoXLhwN9O+tukAlrNpJg1SzDH4QW/URgNYgZTkjA4UkwJUgGXng+6DX1zLfmoymdXo17xh5zmRJ6Q42BWCfc2oJfdAr+Yv+AP9Cb7OJ3H/2JG1HNGz/84klThPVCc=);strokeColor=none;points=[];labelBackgroundColor=none;rounded=0;html=1;whiteSpace=wrap;container=0;" parent="1" vertex="1">
                    <mxGeometry x="805.1100000000001" y="130" width="340" height="30" as="geometry"/>
                </mxCell>
                <mxCell id="cyWZ6qS67xgMYoMhnP-D-93" value="" style="shape=image;verticalLabelPosition=bottom;verticalAlign=top;imageAspect=0;aspect=fixed;image=data:image/svg+xml,PHN2ZyB4bWxucz0iaHR0cDovL3d3dy53My5vcmcvMjAwMC9zdmciIHdpZHRoPSIzMiIgaGVpZ2h0PSIzMiIgdmlld0JveD0iMCAwIDMyIDMyIiBmaWxsPSJub25lIj4mI3hhOzxwYXRoIGQ9Ik0wIDE2QzAgNy4xNjM0NCA3LjE2MzQ0IDAgMTYgMFYwQzI0LjgzNjYgMCAzMiA3LjE2MzQ0IDMyIDE2VjE2QzMyIDI0LjgzNjYgMjQuODM2NiAzMiAxNiAzMlYzMkM3LjE2MzQ0IDMyIDAgMjQuODM2NiAwIDE2VjE2WiIgZmlsbD0iIzUyODJGRiIvPiYjeGE7PHBhdGggZD0iTTExLjk5NSAyNEw3LjAwMDk4IDE3LjczOEw4Ljc4MTk4IDkuOTI3TDE2IDYuNDUzTDIzLjIxOCA5LjkyOEwyNC45OTkgMTcuNzM5TDIwLjAwNSAyNEgxMS45OTVaTTIwIDEzLjE5NkwxNS45OTkgMTAuODk5TDEyIDEzLjE5NlYxOC4xTDE2IDIwLjQwMUwyMCAxOC4xVjEzLjE5NlpNMTguNzggMTMuODk2SDE4Ljc4N0wxNiAxNS40OTlMMTMuMjE0IDEzLjg5NUgxMy4yMTlMMTUuOTk5IDEyLjI5OUwxOC43OCAxMy44OTZaIiBmaWxsPSJ3aGl0ZSIvPiYjeGE7PC9zdmc+;container=0;" parent="1" vertex="1">
                    <mxGeometry x="825.1051515151516" y="129.99999999999994" width="27.69545454545455" height="27.69545454545455" as="geometry"/>
                </mxCell>
                <mxCell id="29" style="edgeStyle=none;html=1;exitX=0.5;exitY=1;exitDx=0;exitDy=0;entryX=0.5;entryY=0;entryDx=0;entryDy=0;" parent="1" source="25" target="26" edge="1">
                    <mxGeometry relative="1" as="geometry"/>
                </mxCell>
                <mxCell id="30" style="edgeStyle=none;html=1;exitX=0.5;exitY=1;exitDx=0;exitDy=0;entryX=0.5;entryY=0;entryDx=0;entryDy=0;" parent="1" source="25" target="27" edge="1">
                    <mxGeometry relative="1" as="geometry"/>
                </mxCell>
                <mxCell id="31" style="edgeStyle=none;html=1;exitX=0.5;exitY=1;exitDx=0;exitDy=0;entryX=0.5;entryY=0;entryDx=0;entryDy=0;" parent="1" source="25" target="28" edge="1">
                    <mxGeometry relative="1" as="geometry"/>
                </mxCell>
                <mxCell id="cyWZ6qS67xgMYoMhnP-D-36" value="" style="group" parent="1" vertex="1" connectable="0">
                    <mxGeometry x="548" y="10" width="152" height="130" as="geometry"/>
                </mxCell>
                <mxCell id="Zcm5tQwCMB2YyKj0-IPv-38" value="" style="aspect=fixed;sketch=0;html=1;dashed=0;whitespace=wrap;verticalLabelPosition=bottom;verticalAlign=top;fillColor=#2875E2;strokeColor=#ffffff;points=[[0.005,0.63,0],[0.1,0.2,0],[0.9,0.2,0],[0.5,0,0],[0.995,0.63,0],[0.72,0.99,0],[0.5,1,0],[0.28,0.99,0]];shape=mxgraph.kubernetes.icon2;prIcon=group;container=0;" parent="cyWZ6qS67xgMYoMhnP-D-36" vertex="1">
                    <mxGeometry x="84" y="10" width="50" height="48" as="geometry"/>
                </mxCell>
                <mxCell id="Zcm5tQwCMB2YyKj0-IPv-39" style="vsdxID=5;fillColor=none;gradientColor=none;shape=stencil(vVPLEoIgFP0aljgEVuPa6j+YRGUica6U9vdhUKk4LWzG3X0cOPdcOIilTclrgShpDOiLaGVmSsQOiFJZlQKksRFiR8TSXIMoQN+qzOU175F9dNX3/obOnSP9CUoeLktIFL8KJ4flcLZN8NhtRJiDwxsf7VwhQHjAhniCDvNONhi04UbqakSuOBQCWy6cK16MWk0rRB2U/XRKVgMlSRwl+1nyhWI+s0+Xs4KYgNvPtlBKuJvVniX4En+9yfxWVpDx2yc2+Bosl0o5fw77U0PakjMzOz4B);strokeColor=#ff5958;spacingTop=-3;spacingBottom=-3;spacingLeft=-3;spacingRight=-3;points=[];labelBackgroundColor=none;rounded=0;html=1;whiteSpace=wrap;container=0;" parent="cyWZ6qS67xgMYoMhnP-D-36" vertex="1">
                    <mxGeometry width="152" height="130" as="geometry"/>
                </mxCell>
                <mxCell id="Zcm5tQwCMB2YyKj0-IPv-40" value="&lt;div style=&quot;font-size: 1px&quot;&gt;&lt;font style=&quot;font-size:22.58px;font-family:Arial;color:#000000;direction:ltr;letter-spacing:0px;line-height:120%;opacity:1&quot;&gt;Браузер&amp;nbsp;&lt;/font&gt;&lt;/div&gt;&lt;div style=&quot;font-size: 1px&quot;&gt;&lt;font style=&quot;font-size:22.58px;font-family:Arial;color:#000000;direction:ltr;letter-spacing:0px;line-height:120%;opacity:1&quot;&gt;пользователя&lt;/font&gt;&lt;/div&gt;" style="verticalAlign=bottom;align=center;overflow=width;vsdxID=6;fillColor=none;gradientColor=none;strokeColor=none;spacingTop=-3;spacingBottom=-3;spacingLeft=-3;spacingRight=-3;points=[];labelBackgroundColor=none;rounded=0;html=1;whiteSpace=wrap;container=0;" parent="cyWZ6qS67xgMYoMhnP-D-36" vertex="1">
                    <mxGeometry y="67" width="152" height="53" as="geometry"/>
                </mxCell>
                <mxCell id="cyWZ6qS67xgMYoMhnP-D-37" style="edgeStyle=orthogonalEdgeStyle;rounded=0;orthogonalLoop=1;jettySize=auto;html=1;fillColor=#f8cecc;strokeColor=#b85450;" parent="1" source="25" target="4" edge="1">
                    <mxGeometry relative="1" as="geometry">
                        <Array as="points">
                            <mxPoint x="280" y="230"/>
                        </Array>
                    </mxGeometry>
                </mxCell>
                <mxCell id="cyWZ6qS67xgMYoMhnP-D-45" value="&lt;span style=&quot;color: rgba(0, 0, 0, 0.85); font-family: &amp;quot;YS Text&amp;quot;, sans-serif; text-align: left; white-space: pre-wrap;&quot;&gt;health check&lt;/span&gt;" style="edgeLabel;html=1;align=center;verticalAlign=middle;resizable=0;points=[];fontSize=12;" parent="cyWZ6qS67xgMYoMhnP-D-37" vertex="1" connectable="0">
                    <mxGeometry x="0.3704" relative="1" as="geometry">
                        <mxPoint x="-10" y="20" as="offset"/>
                    </mxGeometry>
                </mxCell>
                <mxCell id="23" value="&lt;div style=&quot;font-size: 1px&quot;&gt;&lt;font style=&quot;font-size: 22.58px; font-family: Arial; color: rgb(0, 0, 0); direction: ltr; letter-spacing: 0px; line-height: 120%; opacity: 1;&quot;&gt;Kubernetes -&amp;nbsp;&lt;/font&gt;&lt;span style=&quot;font-family: Arial; font-size: 22.58px; letter-spacing: 0px; background-color: transparent;&quot;&gt;cluster 1&lt;/span&gt;&lt;/div&gt;" style="verticalAlign=middle;align=center;overflow=width;vsdxID=7;fillColor=none;gradientColor=none;shape=stencil(nZBLDoAgDERP0z3SIyjew0SURgSD+Lu9kMZoXLhwN9O+tukAlrNpJg1SzDH4QW/URgNYgZTkjA4UkwJUgGXng+6DX1zLfmoymdXo17xh5zmRJ6Q42BWCfc2oJfdAr+Yv+AP9Cb7OJ3H/2JG1HNGz/84klThPVCc=);strokeColor=none;points=[];labelBackgroundColor=none;rounded=0;html=1;whiteSpace=wrap;container=0;" parent="1" vertex="1">
                    <mxGeometry x="85.11000000000001" y="130" width="340" height="30" as="geometry"/>
                </mxCell>
                <mxCell id="22" value="" style="shape=image;verticalLabelPosition=bottom;verticalAlign=top;imageAspect=0;aspect=fixed;image=data:image/svg+xml,PHN2ZyB4bWxucz0iaHR0cDovL3d3dy53My5vcmcvMjAwMC9zdmciIHdpZHRoPSIzMiIgaGVpZ2h0PSIzMiIgdmlld0JveD0iMCAwIDMyIDMyIiBmaWxsPSJub25lIj4mI3hhOzxwYXRoIGQ9Ik0wIDE2QzAgNy4xNjM0NCA3LjE2MzQ0IDAgMTYgMFYwQzI0LjgzNjYgMCAzMiA3LjE2MzQ0IDMyIDE2VjE2QzMyIDI0LjgzNjYgMjQuODM2NiAzMiAxNiAzMlYzMkM3LjE2MzQ0IDMyIDAgMjQuODM2NiAwIDE2VjE2WiIgZmlsbD0iIzUyODJGRiIvPiYjeGE7PHBhdGggZD0iTTExLjk5NSAyNEw3LjAwMDk4IDE3LjczOEw4Ljc4MTk4IDkuOTI3TDE2IDYuNDUzTDIzLjIxOCA5LjkyOEwyNC45OTkgMTcuNzM5TDIwLjAwNSAyNEgxMS45OTVaTTIwIDEzLjE5NkwxNS45OTkgMTAuODk5TDEyIDEzLjE5NlYxOC4xTDE2IDIwLjQwMUwyMCAxOC4xVjEzLjE5NlpNMTguNzggMTMuODk2SDE4Ljc4N0wxNiAxNS40OTlMMTMuMjE0IDEzLjg5NUgxMy4yMTlMMTUuOTk5IDEyLjI5OUwxOC43OCAxMy44OTZaIiBmaWxsPSJ3aGl0ZSIvPiYjeGE7PC9zdmc+;container=0;" parent="1" vertex="1">
                    <mxGeometry x="105.10515151515153" y="129.99999999999994" width="27.69545454545455" height="27.69545454545455" as="geometry"/>
                </mxCell>
                <mxCell id="cyWZ6qS67xgMYoMhnP-D-94" style="edgeStyle=orthogonalEdgeStyle;rounded=1;orthogonalLoop=1;jettySize=auto;html=1;exitX=1;exitY=0.5;exitDx=0;exitDy=0;curved=0;" parent="1" source="3" target="cyWZ6qS67xgMYoMhnP-D-80" edge="1">
                    <mxGeometry relative="1" as="geometry">
                        <Array as="points">
                            <mxPoint x="790" y="-175"/>
                            <mxPoint x="790" y="235"/>
                        </Array>
                    </mxGeometry>
                </mxCell>
                <mxCell id="cyWZ6qS67xgMYoMhnP-D-95" style="rounded=0;orthogonalLoop=1;jettySize=auto;html=1;exitX=1;exitY=0.5;exitDx=0;exitDy=0;" parent="1" source="cyWZ6qS67xgMYoMhnP-D-38" target="cyWZ6qS67xgMYoMhnP-D-72" edge="1">
                    <mxGeometry relative="1" as="geometry">
                        <mxPoint x="850" y="1030" as="targetPoint"/>
                    </mxGeometry>
                </mxCell>
                <mxCell id="cyWZ6qS67xgMYoMhnP-D-96" style="rounded=0;orthogonalLoop=1;jettySize=auto;html=1;exitX=0;exitY=0.5;exitDx=0;exitDy=0;" parent="1" source="cyWZ6qS67xgMYoMhnP-D-68" target="14" edge="1">
                    <mxGeometry relative="1" as="geometry"/>
                </mxCell>
                <mxCell id="cyWZ6qS67xgMYoMhnP-D-97" value="" style="endArrow=classic;startArrow=classic;html=1;rounded=0;" parent="1" source="14" target="cyWZ6qS67xgMYoMhnP-D-72" edge="1">
                    <mxGeometry width="50" height="50" relative="1" as="geometry">
                        <mxPoint x="520" y="853" as="sourcePoint"/>
                        <mxPoint x="570" y="803" as="targetPoint"/>
                    </mxGeometry>
                </mxCell>
                <mxCell id="cyWZ6qS67xgMYoMhnP-D-117" value="Репликация" style="edgeLabel;html=1;align=center;verticalAlign=middle;resizable=0;points=[];" parent="cyWZ6qS67xgMYoMhnP-D-97" vertex="1" connectable="0">
                    <mxGeometry x="-0.1292" relative="1" as="geometry">
                        <mxPoint as="offset"/>
                    </mxGeometry>
                </mxCell>
                <mxCell id="cyWZ6qS67xgMYoMhnP-D-100" value="" style="group" parent="1" vertex="1" connectable="0">
                    <mxGeometry x="270" y="920" width="120" height="60" as="geometry"/>
                </mxCell>
                <mxCell id="cyWZ6qS67xgMYoMhnP-D-99" value="&lt;blockquote style=&quot;margin: 0 0 0 40px; border: none; padding: 0px;&quot;&gt;Cloud&lt;br&gt; backup&lt;br&gt; service&lt;/blockquote&gt;" style="rounded=1;whiteSpace=wrap;html=1;align=center;" parent="cyWZ6qS67xgMYoMhnP-D-100" vertex="1">
                    <mxGeometry width="120" height="60" as="geometry"/>
                </mxCell>
                <mxCell id="cyWZ6qS67xgMYoMhnP-D-98" value="" style="shape=image;verticalLabelPosition=bottom;verticalAlign=top;imageAspect=0;aspect=fixed;image=data:image/svg+xml,PHN2ZyB4bWxucz0iaHR0cDovL3d3dy53My5vcmcvMjAwMC9zdmciIGZpbGw9Im5vbmUiIHZpZXdCb3g9IjAgMCAzMiAzMiIgaGVpZ2h0PSIzMiIgd2lkdGg9IjMyIj4mI3hhOzxyZWN0IGZpbGw9IiM1MjgyRkYiIHRyYW5zZm9ybT0icm90YXRlKC05MCAwIDMyKSIgcng9IjE2IiBoZWlnaHQ9IjMyIiB3aWR0aD0iMzIiIHk9IjMyIi8+JiN4YTs8cGF0aCBmaWxsPSJ3aGl0ZSIgZD0iTTE2IDI0QzIwLjQxODMgMjQgMjQgMjAuNDE4MyAyNCAxNkMyNCAxMS41ODE3IDIwLjQxODMgOCAxNiA4QzExLjU4MTcgOCA4IDExLjU4MTcgOCAxNkM4IDIwLjQxODMgMTEuNTgxNyAyNCAxNiAyNFpNMTIuNzQ5MyAxNi4wMDE2QzEyLjc0ODkgMTcuNDQ5MiAxMy43MjM4IDE4Ljc2OTMgMTUuMTg5MyAxOS4xNDY5QzE2LjkyNzQgMTkuNTk0OCAxOC42OTk2IDE4LjU0ODkgMTkuMTQ3NSAxNi44MTA3QzE5LjU5NTQgMTUuMDcyNiAxOC41NDk0IDEzLjMwMDUgMTYuODExMyAxMi44NTI2QzE2LjIwNzcgMTIuNjk3IDE1LjYwMTEgMTIuNzIxMyAxNS4wNDY2IDEyLjg5MjJMMTYuMDAwMiAxNC41TDEyLjAwMDkgMTMuOTk0N0wxMy40NzUxIDEwLjI0MjhMMTQuMjY2NSAxMS41NzcyQzE1LjE2NDkgMTEuMjI0MyAxNi4xNzk4IDExLjE0MDggMTcuMTg1NiAxMS40QzE5LjcyNiAxMi4wNTQ2IDIxLjI1NDYgMTQuNjQ0NyAyMC42IDE3LjE4NUMxOS45NDU0IDE5LjcyNTQgMTcuMzU1NCAyMS4yNTQxIDE0LjgxNSAyMC41OTk1QzEyLjY3MDcgMjAuMDQ2OSAxMS4yNDg3IDE4LjExNjUgMTEuMjQ5MyAxNi4wMDEyTDEyLjc0OTMgMTYuMDAxNloiIGNsaXAtcnVsZT0iZXZlbm9kZCIgZmlsbC1ydWxlPSJldmVub2RkIi8+JiN4YTs8L3N2Zz4=;" parent="cyWZ6qS67xgMYoMhnP-D-100" vertex="1">
                    <mxGeometry x="14" y="14" width="32" height="32" as="geometry"/>
                </mxCell>
                <mxCell id="cyWZ6qS67xgMYoMhnP-D-101" value="" style="endArrow=classic;html=1;rounded=0;" parent="1" source="14" target="cyWZ6qS67xgMYoMhnP-D-99" edge="1">
                    <mxGeometry width="50" height="50" relative="1" as="geometry">
                        <mxPoint x="-70" y="1050" as="sourcePoint"/>
                        <mxPoint x="-20" y="1000" as="targetPoint"/>
                    </mxGeometry>
                </mxCell>
                <mxCell id="cyWZ6qS67xgMYoMhnP-D-102" value="" style="group" parent="1" vertex="1" connectable="0">
                    <mxGeometry x="990.22" y="920" width="120" height="60" as="geometry"/>
                </mxCell>
                <mxCell id="cyWZ6qS67xgMYoMhnP-D-103" value="&lt;blockquote style=&quot;margin: 0 0 0 40px; border: none; padding: 0px;&quot;&gt;Cloud&lt;br&gt; backup&lt;br&gt; service&lt;/blockquote&gt;" style="rounded=1;whiteSpace=wrap;html=1;align=center;" parent="cyWZ6qS67xgMYoMhnP-D-102" vertex="1">
                    <mxGeometry width="120" height="60" as="geometry"/>
                </mxCell>
                <mxCell id="cyWZ6qS67xgMYoMhnP-D-104" value="" style="shape=image;verticalLabelPosition=bottom;verticalAlign=top;imageAspect=0;aspect=fixed;image=data:image/svg+xml,PHN2ZyB4bWxucz0iaHR0cDovL3d3dy53My5vcmcvMjAwMC9zdmciIGZpbGw9Im5vbmUiIHZpZXdCb3g9IjAgMCAzMiAzMiIgaGVpZ2h0PSIzMiIgd2lkdGg9IjMyIj4mI3hhOzxyZWN0IGZpbGw9IiM1MjgyRkYiIHRyYW5zZm9ybT0icm90YXRlKC05MCAwIDMyKSIgcng9IjE2IiBoZWlnaHQ9IjMyIiB3aWR0aD0iMzIiIHk9IjMyIi8+JiN4YTs8cGF0aCBmaWxsPSJ3aGl0ZSIgZD0iTTE2IDI0QzIwLjQxODMgMjQgMjQgMjAuNDE4MyAyNCAxNkMyNCAxMS41ODE3IDIwLjQxODMgOCAxNiA4QzExLjU4MTcgOCA4IDExLjU4MTcgOCAxNkM4IDIwLjQxODMgMTEuNTgxNyAyNCAxNiAyNFpNMTIuNzQ5MyAxNi4wMDE2QzEyLjc0ODkgMTcuNDQ5MiAxMy43MjM4IDE4Ljc2OTMgMTUuMTg5MyAxOS4xNDY5QzE2LjkyNzQgMTkuNTk0OCAxOC42OTk2IDE4LjU0ODkgMTkuMTQ3NSAxNi44MTA3QzE5LjU5NTQgMTUuMDcyNiAxOC41NDk0IDEzLjMwMDUgMTYuODExMyAxMi44NTI2QzE2LjIwNzcgMTIuNjk3IDE1LjYwMTEgMTIuNzIxMyAxNS4wNDY2IDEyLjg5MjJMMTYuMDAwMiAxNC41TDEyLjAwMDkgMTMuOTk0N0wxMy40NzUxIDEwLjI0MjhMMTQuMjY2NSAxMS41NzcyQzE1LjE2NDkgMTEuMjI0MyAxNi4xNzk4IDExLjE0MDggMTcuMTg1NiAxMS40QzE5LjcyNiAxMi4wNTQ2IDIxLjI1NDYgMTQuNjQ0NyAyMC42IDE3LjE4NUMxOS45NDU0IDE5LjcyNTQgMTcuMzU1NCAyMS4yNTQxIDE0LjgxNSAyMC41OTk1QzEyLjY3MDcgMjAuMDQ2OSAxMS4yNDg3IDE4LjExNjUgMTEuMjQ5MyAxNi4wMDEyTDEyLjc0OTMgMTYuMDAxNloiIGNsaXAtcnVsZT0iZXZlbm9kZCIgZmlsbC1ydWxlPSJldmVub2RkIi8+JiN4YTs8L3N2Zz4=;" parent="cyWZ6qS67xgMYoMhnP-D-102" vertex="1">
                    <mxGeometry x="14" y="14" width="32" height="32" as="geometry"/>
                </mxCell>
                <mxCell id="cyWZ6qS67xgMYoMhnP-D-105" value="" style="endArrow=classic;html=1;rounded=0;" parent="1" source="cyWZ6qS67xgMYoMhnP-D-72" target="cyWZ6qS67xgMYoMhnP-D-103" edge="1">
                    <mxGeometry width="50" height="50" relative="1" as="geometry">
                        <mxPoint x="730" y="880" as="sourcePoint"/>
                        <mxPoint x="730" y="994" as="targetPoint"/>
                    </mxGeometry>
                </mxCell>
                <mxCell id="cyWZ6qS67xgMYoMhnP-D-112" style="rounded=0;orthogonalLoop=1;jettySize=auto;html=1;fillColor=#f8cecc;strokeColor=#b85450;entryX=0;entryY=0.25;entryDx=0;entryDy=0;exitX=1.004;exitY=0.196;exitDx=0;exitDy=0;exitPerimeter=0;" parent="1" source="14" target="cyWZ6qS67xgMYoMhnP-D-68" edge="1">
                    <mxGeometry relative="1" as="geometry">
                        <mxPoint x="656.6100000000001" y="656" as="sourcePoint"/>
                        <mxPoint x="656.6100000000001" y="573" as="targetPoint"/>
                    </mxGeometry>
                </mxCell>
                <mxCell id="cyWZ6qS67xgMYoMhnP-D-113" value="&lt;span style=&quot;color: rgba(0, 0, 0, 0.85); font-family: &amp;quot;YS Text&amp;quot;, sans-serif; text-align: left; white-space: pre-wrap;&quot;&gt;health check&lt;/span&gt;" style="edgeLabel;html=1;align=center;verticalAlign=middle;resizable=0;points=[];fontSize=12;" parent="cyWZ6qS67xgMYoMhnP-D-112" vertex="1" connectable="0">
                    <mxGeometry x="0.3704" relative="1" as="geometry">
                        <mxPoint x="113" y="-42" as="offset"/>
                    </mxGeometry>
                </mxCell>
                <mxCell id="cyWZ6qS67xgMYoMhnP-D-115" style="rounded=0;orthogonalLoop=1;jettySize=auto;html=1;fillColor=#f8cecc;strokeColor=#b85450;entryX=1;entryY=0.25;entryDx=0;entryDy=0;exitX=-0.001;exitY=0.176;exitDx=0;exitDy=0;exitPerimeter=0;" parent="1" source="cyWZ6qS67xgMYoMhnP-D-72" target="cyWZ6qS67xgMYoMhnP-D-38" edge="1">
                    <mxGeometry relative="1" as="geometry">
                        <mxPoint x="406" y="774" as="sourcePoint"/>
                        <mxPoint x="1005" y="640" as="targetPoint"/>
                    </mxGeometry>
                </mxCell>
                <mxCell id="cyWZ6qS67xgMYoMhnP-D-116" value="&lt;span style=&quot;color: rgba(0, 0, 0, 0.85); font-family: &amp;quot;YS Text&amp;quot;, sans-serif; text-align: left; white-space: pre-wrap;&quot;&gt;health check&lt;/span&gt;" style="edgeLabel;html=1;align=center;verticalAlign=middle;resizable=0;points=[];fontSize=12;" parent="cyWZ6qS67xgMYoMhnP-D-115" vertex="1" connectable="0">
                    <mxGeometry x="0.3704" relative="1" as="geometry">
                        <mxPoint x="-94" y="-31" as="offset"/>
                    </mxGeometry>
                </mxCell>
                <mxCell id="cyWZ6qS67xgMYoMhnP-D-118" style="edgeStyle=orthogonalEdgeStyle;rounded=0;orthogonalLoop=1;jettySize=auto;html=1;" parent="1" source="cyWZ6qS67xgMYoMhnP-D-85" target="cyWZ6qS67xgMYoMhnP-D-68" edge="1">
                    <mxGeometry relative="1" as="geometry">
                        <mxPoint x="1060" y="430" as="sourcePoint"/>
                        <mxPoint x="1240" y="610" as="targetPoint"/>
                        <Array as="points">
                            <mxPoint x="1040" y="570"/>
                            <mxPoint x="1040" y="570"/>
                        </Array>
                    </mxGeometry>
                </mxCell>
                <mxCell id="cyWZ6qS67xgMYoMhnP-D-119" value="TCP" style="edgeLabel;html=1;align=center;verticalAlign=middle;resizable=0;points=[];container=0;" parent="cyWZ6qS67xgMYoMhnP-D-118" vertex="1" connectable="0">
                    <mxGeometry x="-0.0566" y="2" relative="1" as="geometry">
                        <mxPoint x="-2" y="4" as="offset"/>
                    </mxGeometry>
                </mxCell>
                <mxCell id="cyWZ6qS67xgMYoMhnP-D-120" style="edgeStyle=orthogonalEdgeStyle;rounded=0;orthogonalLoop=1;jettySize=auto;html=1;" parent="1" source="cyWZ6qS67xgMYoMhnP-D-84" target="cyWZ6qS67xgMYoMhnP-D-68" edge="1">
                    <mxGeometry relative="1" as="geometry">
                        <mxPoint x="1050" y="420" as="sourcePoint"/>
                        <mxPoint x="1050" y="630" as="targetPoint"/>
                        <Array as="points">
                            <mxPoint x="1030" y="560"/>
                            <mxPoint x="1030" y="560"/>
                        </Array>
                    </mxGeometry>
                </mxCell>
                <mxCell id="cyWZ6qS67xgMYoMhnP-D-121" value="TCP" style="edgeLabel;html=1;align=center;verticalAlign=middle;resizable=0;points=[];container=0;" parent="cyWZ6qS67xgMYoMhnP-D-120" vertex="1" connectable="0">
                    <mxGeometry x="-0.0566" y="2" relative="1" as="geometry">
                        <mxPoint x="-2" y="-4" as="offset"/>
                    </mxGeometry>
                </mxCell>
                <mxCell id="38" style="edgeStyle=none;html=1;exitX=0.75;exitY=0;exitDx=0;exitDy=0;entryX=0.75;entryY=1;entryDx=0;entryDy=0;fillColor=#f8cecc;strokeColor=#b85450;" edge="1" parent="1" source="cyWZ6qS67xgMYoMhnP-D-86" target="cyWZ6qS67xgMYoMhnP-D-78">
                    <mxGeometry relative="1" as="geometry"/>
                </mxCell>
                <mxCell id="cyWZ6qS67xgMYoMhnP-D-86" value="APP" style="rounded=1;whiteSpace=wrap;html=1;" parent="1" vertex="1">
                    <mxGeometry x="1010.22" y="390" width="80" height="30" as="geometry"/>
                </mxCell>
                <mxCell id="cyWZ6qS67xgMYoMhnP-D-122" style="edgeStyle=orthogonalEdgeStyle;rounded=0;orthogonalLoop=1;jettySize=auto;html=1;" parent="1" source="27" target="cyWZ6qS67xgMYoMhnP-D-38" edge="1">
                    <mxGeometry relative="1" as="geometry">
                        <mxPoint x="280.22" y="420" as="sourcePoint"/>
                        <mxPoint x="280.22" y="620" as="targetPoint"/>
                        <Array as="points">
                            <mxPoint x="320" y="570"/>
                            <mxPoint x="320" y="570"/>
                        </Array>
                    </mxGeometry>
                </mxCell>
                <mxCell id="cyWZ6qS67xgMYoMhnP-D-123" value="TCP" style="edgeLabel;html=1;align=center;verticalAlign=middle;resizable=0;points=[];container=0;" parent="cyWZ6qS67xgMYoMhnP-D-122" vertex="1" connectable="0">
                    <mxGeometry x="-0.0566" y="2" relative="1" as="geometry">
                        <mxPoint x="-2" y="4" as="offset"/>
                    </mxGeometry>
                </mxCell>
                <mxCell id="cyWZ6qS67xgMYoMhnP-D-124" style="edgeStyle=orthogonalEdgeStyle;rounded=0;orthogonalLoop=1;jettySize=auto;html=1;" parent="1" source="26" target="cyWZ6qS67xgMYoMhnP-D-38" edge="1">
                    <mxGeometry relative="1" as="geometry">
                        <mxPoint x="350" y="440" as="sourcePoint"/>
                        <mxPoint x="350" y="640" as="targetPoint"/>
                        <Array as="points">
                            <mxPoint x="310" y="570"/>
                            <mxPoint x="310" y="570"/>
                        </Array>
                    </mxGeometry>
                </mxCell>
                <mxCell id="cyWZ6qS67xgMYoMhnP-D-125" value="TCP" style="edgeLabel;html=1;align=center;verticalAlign=middle;resizable=0;points=[];container=0;" parent="cyWZ6qS67xgMYoMhnP-D-124" vertex="1" connectable="0">
                    <mxGeometry x="-0.0566" y="2" relative="1" as="geometry">
                        <mxPoint x="-2" y="-4" as="offset"/>
                    </mxGeometry>
                </mxCell>
                <mxCell id="41" style="edgeStyle=none;html=1;exitX=0.75;exitY=0;exitDx=0;exitDy=0;entryX=0.75;entryY=1;entryDx=0;entryDy=0;fillColor=#f8cecc;strokeColor=#b85450;" edge="1" parent="1" source="28" target="25">
                    <mxGeometry relative="1" as="geometry"/>
                </mxCell>
                <mxCell id="28" value="APP" style="rounded=1;whiteSpace=wrap;html=1;" parent="1" vertex="1">
                    <mxGeometry x="290.22" y="390" width="80" height="30" as="geometry"/>
                </mxCell>
                <mxCell id="32" value="&lt;h1 style=&quot;margin-top: 0px;&quot;&gt;&lt;strong style=&quot;box-sizing: inherit; color: rgba(0, 0, 0, 0.85); font-family: &amp;quot;YS Text&amp;quot;, sans-serif; font-size: 18px; white-space-collapse: preserve-breaks; background-color: rgb(255, 255, 255);&quot;&gt;Стратегия масштабирования и отказоустойчивости.&lt;/strong&gt;&lt;br&gt;&lt;/h1&gt;&lt;p&gt;Исползуем два географически разнесенных ДЦ.&lt;/p&gt;&lt;p&gt;В каждом ДЦ отдельный кластер k8s&lt;/p&gt;&lt;p&gt;Используем горизонтальное масштабирование&amp;nbsp;&lt;span style=&quot;background-color: transparent;&quot;&gt;HPA + Cluster Autoscaler&lt;/span&gt;&lt;/p&gt;&lt;p&gt;Стратегия оказоустойчивости Active-Active&lt;/p&gt;&lt;p&gt;GSLB должен получать метрики загрузки ДЦ и отправлять пользователей при отсутвии перегрузки/недоступности&amp;nbsp;&lt;br&gt;в ближайшей ДЦ на основании GeoIP&lt;/p&gt;&lt;p&gt;В случае оказа одного ДЦ весь трафик должен перейти на оставшейся ДЦ&lt;/p&gt;" style="text;html=1;whiteSpace=wrap;overflow=hidden;rounded=0;" vertex="1" parent="1">
                    <mxGeometry x="1284" y="8.85" width="370" height="371.15" as="geometry"/>
                </mxCell>
                <mxCell id="33" style="edgeStyle=none;html=1;exitX=0;exitY=0.5;exitDx=0;exitDy=0;entryX=1;entryY=1;entryDx=0;entryDy=0;fillColor=#f8cecc;strokeColor=#b85450;" edge="1" parent="1" source="cyWZ6qS67xgMYoMhnP-D-78" target="4">
                    <mxGeometry relative="1" as="geometry"/>
                </mxCell>
                <mxCell id="36" value="&lt;span style=&quot;color: rgba(0, 0, 0, 0.85); font-family: &amp;quot;YS Text&amp;quot;, sans-serif; font-size: 12px; text-align: left; white-space: pre-wrap;&quot;&gt;health check&lt;/span&gt;" style="edgeLabel;html=1;align=center;verticalAlign=middle;resizable=0;points=[];" vertex="1" connectable="0" parent="33">
                    <mxGeometry x="-0.0721" y="-1" relative="1" as="geometry">
                        <mxPoint as="offset"/>
                    </mxGeometry>
                </mxCell>
                <mxCell id="34" style="edgeStyle=orthogonalEdgeStyle;html=1;exitX=1;exitY=0.75;exitDx=0;exitDy=0;entryX=0.5;entryY=1;entryDx=0;entryDy=0;fillColor=#f8cecc;strokeColor=#b85450;" edge="1" parent="1" source="25" target="cyWZ6qS67xgMYoMhnP-D-80">
                    <mxGeometry relative="1" as="geometry">
                        <Array as="points">
                            <mxPoint x="880" y="308"/>
                        </Array>
                    </mxGeometry>
                </mxCell>
                <mxCell id="37" value="&lt;span style=&quot;color: rgba(0, 0, 0, 0.85); font-family: &amp;quot;YS Text&amp;quot;, sans-serif; font-size: 12px; text-align: left; white-space: pre-wrap;&quot;&gt;health check&lt;/span&gt;" style="edgeLabel;html=1;align=center;verticalAlign=middle;resizable=0;points=[];" vertex="1" connectable="0" parent="34">
                    <mxGeometry x="0.1415" y="-1" relative="1" as="geometry">
                        <mxPoint as="offset"/>
                    </mxGeometry>
                </mxCell>
                <mxCell id="45" value="&lt;span style=&quot;color: rgba(0, 0, 0, 0.85); font-family: &amp;quot;YS Text&amp;quot;, sans-serif; text-align: left; white-space-collapse: preserve; background-color: rgb(255, 255, 255);&quot;&gt;health check&lt;/span&gt;" style="text;html=1;align=center;verticalAlign=middle;whiteSpace=wrap;rounded=0;fontSize=10;" vertex="1" parent="1">
                    <mxGeometry x="1050.22" y="340" width="60" height="30" as="geometry"/>
                </mxCell>
                <mxCell id="46" value="&lt;span style=&quot;color: rgba(0, 0, 0, 0.85); font-family: &amp;quot;YS Text&amp;quot;, sans-serif; text-align: left; white-space-collapse: preserve; background-color: rgb(255, 255, 255);&quot;&gt;health check&lt;/span&gt;" style="text;html=1;align=center;verticalAlign=middle;whiteSpace=wrap;rounded=0;fontSize=10;" vertex="1" parent="1">
                    <mxGeometry x="330" y="340" width="60" height="30" as="geometry"/>
                </mxCell>
            </root>
        </mxGraphModel>
    </diagram>
</mxfile>